<mxfile host="65bd71144e">
    <diagram name="Page-1" id="LwSOovy8OdwzHFtQ82wI">
        <mxGraphModel dx="1692" dy="2343" grid="1" gridSize="10" guides="1" tooltips="1" connect="1" arrows="1" fold="1" page="1" pageScale="1" pageWidth="1100" pageHeight="850" math="0" shadow="0">
            <root>
                <mxCell id="0"/>
                <mxCell id="1" parent="0"/>
                <mxCell id="PG-S5D8SCmHSsYNVxMVk-60" value="" style="rounded=1;whiteSpace=wrap;html=1;fontFamily=Helvetica;fontSize=12;fontColor=#333333;labelBackgroundColor=default;fillColor=#f5f5f5;strokeColor=#666666;opacity=80;" parent="1" vertex="1">
                    <mxGeometry x="1230" y="-820" width="520" height="320" as="geometry"/>
                </mxCell>
                <mxCell id="4" style="edgeStyle=none;html=1;entryX=0.5;entryY=0;entryDx=0;entryDy=0;" edge="1" parent="1" source="3LE55ruSKFipPZqCUEyQ-5" target="PG-S5D8SCmHSsYNVxMVk-60">
                    <mxGeometry relative="1" as="geometry"/>
                </mxCell>
                <mxCell id="3LE55ruSKFipPZqCUEyQ-5" value="" style="aspect=fixed;sketch=0;html=1;dashed=0;whitespace=wrap;verticalLabelPosition=bottom;verticalAlign=top;fillColor=#2875E2;strokeColor=#ffffff;points=[[0.005,0.63,0],[0.1,0.2,0],[0.9,0.2,0],[0.5,0,0],[0.995,0.63,0],[0.72,0.99,0],[0.5,1,0],[0.28,0.99,0]];shape=mxgraph.kubernetes.icon2;prIcon=ing" parent="1" vertex="1">
                    <mxGeometry x="1437.91" y="-1050" width="104.17" height="100" as="geometry"/>
                </mxCell>
                <mxCell id="PG-S5D8SCmHSsYNVxMVk-173" style="edgeStyle=orthogonalEdgeStyle;shape=connector;curved=0;rounded=1;orthogonalLoop=1;jettySize=auto;html=1;shadow=0;strokeColor=#23445d;align=center;verticalAlign=middle;fontFamily=Helvetica;fontSize=12;fontColor=default;labelBackgroundColor=default;elbow=vertical;startSize=8;endArrow=open;endFill=0;endSize=8;flowAnimation=0;fillColor=#bac8d3;" parent="1" edge="1">
                    <mxGeometry relative="1" as="geometry">
                        <mxPoint x="1119" y="-122" as="targetPoint"/>
                        <mxPoint x="1020" y="-122" as="sourcePoint"/>
                    </mxGeometry>
                </mxCell>
                <mxCell id="-whiLjia1cdvk5nuR-Pi-1" value="" style="shape=image;imageAspect=0;aspect=fixed;verticalLabelPosition=bottom;verticalAlign=top;image=data:image/svg+xml,PHN2ZyB4bWxucz0iaHR0cDovL3d3dy53My5vcmcvMjAwMC9zdmciIHZpZXdCb3g9IjAgMCAxMjggMTI4Ij4mI3hhOyAgPHBhdGggZD0iTTY3LjY0OCA2OS43OTdjLTUuMjQ2IDUuMjUtNS4yNDYgMTMuNzU4IDAgMTkuMDA4IDUuMjUgNS4yNDYgMTMuNzU4IDUuMjQ2IDE5LjAwNCAwIDUuMjUtNS4yNSA1LjI1LTEzLjc1OCAwLTE5LjAwOC01LjI0Ni01LjI0Ni0xMy43NTQtNS4yNDYtMTkuMDA0IDBabTE0LjIwNyAxNC4yMTlhNi42NDkgNi42NDkgMCAwIDEtOS40MSAwIDYuNjUgNi42NSAwIDAgMSAwLTkuNDA3IDYuNjQ5IDYuNjQ5IDAgMCAxIDkuNDEgMGMyLjU5OCAyLjU4NiAyLjU5OCA2LjgwOSAwIDkuNDA3Wk04Ni40MyAzLjY3MmwtOC4yMzUgOC4yMzRhNC4xNyA0LjE3IDAgMCAwIDAgNS44NzVsMzIuMTQ5IDMyLjE0OWE0LjE3IDQuMTcgMCAwIDAgNS44NzUgMGw4LjIzNC04LjIzNWMxLjYxLTEuNjEgMS42MS00LjI2MSAwLTUuODdMOTIuMjkgMy42NzFhNC4xNTkgNC4xNTkgMCAwIDAtNS44NiAwWk0yOC43MzggMTA4Ljg5NWEzLjc2MyAzLjc2MyAwIDAgMCAwLTUuMzFsLTQuMTgzLTQuMTg3YTMuNzY4IDMuNzY4IDAgMCAwLTUuMzEzIDBsLTguNjQ0IDguNjQ5LS4wMTYuMDEyLTIuMzcxLTIuMzc1Yy0xLjMxMy0xLjMxMy0zLjQ1LTEuMzEzLTQuNzUgMC0xLjMxMyAxLjMxMi0xLjMxMyAzLjQ0OSAwIDQuNzVsMTQuMjQ2IDE0LjI0MmEzLjM1MyAzLjM1MyAwIDAgMCA0Ljc0NiAwYzEuMy0xLjMxMyAxLjMxMy0zLjQ1IDAtNC43NDZsLTIuMzc1LTIuMzc1LjAxNi0uMDEyWm0wIDAiIGZpbGw9IiNmNWE4MDAiLz4mI3hhOyAgPHBhdGggZD0iTTcyLjI5NyAyNy4zMTMgNTQuMDA0IDQ1LjYwNWMtMS42MjUgMS42MjUtMS42MjUgNC4zMDEgMCA1LjkyNkw2NS4zIDYyLjgyNGM3Ljk4NC01Ljc0NiAxOS4xOC01LjAzNSAyNi4zNjMgMi4xNTNsOS4xNDgtOS4xNDljMS42MjItMS42MjUgMS42MjItNC4yOTcgMC01LjkyMkw3OC4yMiAyNy4zMTNhNC4xODUgNC4xODUgMCAwIDAtNS45MjIgMFpNNjAuNTUgNjcuNTg1bC02LjY3Mi02LjY3MmMtMS41NjMtMS41NjItNC4xMjUtMS41NjItNS42ODQgMGwtMjMuNTMgMjMuNTRhNC4wMzYgNC4wMzYgMCAwIDAgMCA1LjY4N2wxMy4zMzEgMTMuMzMyYTQuMDM2IDQuMDM2IDAgMCAwIDUuNjg4IDBsMTUuMTMyLTE1LjE1N2MtMy4xOTktNi42MDktMi42MjUtMTQuNTkzIDEuNzM1LTIwLjczWm0wIDAiIGZpbGw9IiM0MjVjYzciLz4mI3hhOzwvc3ZnPg==;" parent="1" vertex="1">
                    <mxGeometry x="953.75" y="-169" width="82" height="82" as="geometry"/>
                </mxCell>
                <mxCell id="PG-S5D8SCmHSsYNVxMVk-26" value="" style="rounded=1;whiteSpace=wrap;html=1;glass=0;shadow=0;fillColor=#bac8d3;strokeColor=#23445d;opacity=20;" parent="1" vertex="1">
                    <mxGeometry x="1320" y="-760" width="370" height="220" as="geometry"/>
                </mxCell>
                <mxCell id="PG-S5D8SCmHSsYNVxMVk-154" style="edgeStyle=orthogonalEdgeStyle;shape=connector;curved=0;rounded=1;orthogonalLoop=1;jettySize=auto;html=1;entryX=0.75;entryY=0;entryDx=0;entryDy=0;shadow=0;strokeColor=#23445d;align=center;verticalAlign=middle;fontFamily=Helvetica;fontSize=12;fontColor=default;labelBackgroundColor=default;elbow=vertical;startSize=8;endArrow=open;endFill=0;endSize=8;flowAnimation=0;fillColor=#bac8d3;" parent="1" edge="1">
                    <mxGeometry relative="1" as="geometry">
                        <mxPoint x="1422.0000000000005" y="-625" as="sourcePoint"/>
                        <mxPoint x="1017" y="-172" as="targetPoint"/>
                        <Array as="points">
                            <mxPoint x="1422" y="-410"/>
                            <mxPoint x="1017" y="-410"/>
                        </Array>
                    </mxGeometry>
                </mxCell>
                <mxCell id="PG-S5D8SCmHSsYNVxMVk-36" value="" style="image;aspect=fixed;html=1;points=[];align=center;fontSize=12;image=img/lib/azure2/app_services/App_Services.svg;" parent="1" vertex="1">
                    <mxGeometry x="1390" y="-693" width="68" height="68" as="geometry"/>
                </mxCell>
                <mxCell id="PG-S5D8SCmHSsYNVxMVk-39" value="&lt;b&gt;&lt;font&gt;Api&lt;/font&gt;&lt;/b&gt;" style="text;strokeColor=none;fillColor=none;html=1;align=center;verticalAlign=middle;whiteSpace=wrap;rounded=0;fontSize=18;fontFamily=Comic Sans MS;" parent="1" vertex="1">
                    <mxGeometry x="1388" y="-625" width="70" height="30" as="geometry"/>
                </mxCell>
                <mxCell id="PG-S5D8SCmHSsYNVxMVk-46" value="&lt;b&gt;Employee Service&lt;/b&gt;" style="text;strokeColor=none;fillColor=none;html=1;align=left;verticalAlign=middle;whiteSpace=wrap;rounded=0;fontSize=20;fontFamily=Comic Sans MS;" parent="1" vertex="1">
                    <mxGeometry x="1372" y="-750" width="160" height="30" as="geometry"/>
                </mxCell>
                <mxCell id="PG-S5D8SCmHSsYNVxMVk-63" value="" style="image;sketch=0;aspect=fixed;html=1;points=[];align=center;fontSize=12;image=img/lib/mscae/ResourceGroup.svg;fontFamily=Helvetica;fontColor=default;labelBackgroundColor=default;" parent="1" vertex="1">
                    <mxGeometry x="1330" y="-749" width="36.25" height="29" as="geometry"/>
                </mxCell>
                <mxCell id="PG-S5D8SCmHSsYNVxMVk-79" value="&lt;b&gt;&lt;font&gt;Mysql&lt;/font&gt;&lt;/b&gt;" style="text;strokeColor=none;fillColor=none;html=1;align=center;verticalAlign=middle;whiteSpace=wrap;rounded=0;fontSize=18;fontFamily=Comic Sans MS;" parent="1" vertex="1">
                    <mxGeometry x="1548" y="-723" width="70" height="30" as="geometry"/>
                </mxCell>
                <mxCell id="PG-S5D8SCmHSsYNVxMVk-121" style="edgeStyle=orthogonalEdgeStyle;shape=connector;curved=0;rounded=1;orthogonalLoop=1;jettySize=auto;html=1;shadow=0;strokeColor=default;align=center;verticalAlign=middle;fontFamily=Helvetica;fontSize=12;fontColor=default;labelBackgroundColor=default;startSize=8;endArrow=open;endFill=0;endSize=8;flowAnimation=0;dashed=1;dashPattern=8 8;" parent="1" source="PG-S5D8SCmHSsYNVxMVk-84" edge="1">
                    <mxGeometry relative="1" as="geometry">
                        <mxPoint x="309.3333333333335" y="-158" as="targetPoint"/>
                    </mxGeometry>
                </mxCell>
                <mxCell id="PG-S5D8SCmHSsYNVxMVk-122" style="edgeStyle=orthogonalEdgeStyle;shape=connector;curved=0;rounded=1;orthogonalLoop=1;jettySize=auto;html=1;entryX=0;entryY=0.5;entryDx=0;entryDy=0;shadow=0;dashed=1;dashPattern=8 8;strokeColor=default;align=center;verticalAlign=middle;fontFamily=Helvetica;fontSize=12;fontColor=default;labelBackgroundColor=default;startSize=8;endArrow=open;endFill=0;endSize=8;flowAnimation=0;" parent="1" source="PG-S5D8SCmHSsYNVxMVk-85" edge="1">
                    <mxGeometry relative="1" as="geometry">
                        <mxPoint x="279.34000000000015" y="-128" as="targetPoint"/>
                    </mxGeometry>
                </mxCell>
                <mxCell id="PG-S5D8SCmHSsYNVxMVk-123" style="edgeStyle=orthogonalEdgeStyle;shape=connector;curved=0;rounded=1;orthogonalLoop=1;jettySize=auto;html=1;entryX=0.5;entryY=1;entryDx=0;entryDy=0;shadow=0;dashed=1;dashPattern=8 8;strokeColor=default;align=center;verticalAlign=middle;fontFamily=Helvetica;fontSize=12;fontColor=default;labelBackgroundColor=default;startSize=8;endArrow=open;endFill=0;endSize=8;flowAnimation=0;" parent="1" source="PG-S5D8SCmHSsYNVxMVk-86" edge="1">
                    <mxGeometry relative="1" as="geometry">
                        <mxPoint x="309.34000000000015" y="-98" as="targetPoint"/>
                    </mxGeometry>
                </mxCell>
                <mxCell id="PG-S5D8SCmHSsYNVxMVk-156" value="" style="rounded=1;whiteSpace=wrap;html=1;fontFamily=Helvetica;fontSize=12;labelBackgroundColor=default;fillColor=#b0e3e6;strokeColor=#0e8088;opacity=20;" parent="1" vertex="1">
                    <mxGeometry x="1120" y="-390" width="630" height="546" as="geometry"/>
                </mxCell>
                <mxCell id="PG-S5D8SCmHSsYNVxMVk-159" value="&lt;b&gt;&lt;font&gt;OpenTelemetry&lt;/font&gt;&lt;/b&gt;&lt;div&gt;&lt;b&gt;&lt;font&gt;Collector&lt;/font&gt;&lt;/b&gt;&lt;/div&gt;" style="text;strokeColor=none;fillColor=none;html=1;align=center;verticalAlign=middle;whiteSpace=wrap;rounded=0;fontSize=18;fontFamily=Comic Sans MS;" parent="1" vertex="1">
                    <mxGeometry x="965.75" y="-73" width="70" height="30" as="geometry"/>
                </mxCell>
                <mxCell id="npFnTr0Nz-ztX7RqOmGq-5" style="edgeStyle=orthogonalEdgeStyle;shape=connector;rounded=1;orthogonalLoop=1;jettySize=auto;html=1;dashed=1;dashPattern=8 8;strokeColor=default;align=center;verticalAlign=middle;fontFamily=Helvetica;fontSize=12;fontColor=default;labelBackgroundColor=default;startSize=8;endArrow=open;endFill=0;endSize=8;" parent="1" target="PG-S5D8SCmHSsYNVxMVk-163" edge="1">
                    <mxGeometry relative="1" as="geometry">
                        <mxPoint x="1590" y="-270" as="sourcePoint"/>
                    </mxGeometry>
                </mxCell>
                <mxCell id="PG-S5D8SCmHSsYNVxMVk-160" value="" style="shape=image;imageAspect=0;aspect=fixed;verticalLabelPosition=bottom;verticalAlign=top;fontFamily=Helvetica;fontSize=12;fontColor=default;labelBackgroundColor=default;image=data:image/svg+xml,PHN2ZyB4bWxuczp4bGluaz0iaHR0cDovL3d3dy53My5vcmcvMTk5OS94bGluayIgeG1sbnM9Imh0dHA6Ly93d3cudzMub3JnLzIwMDAvc3ZnIiB4bWw6c3BhY2U9InByZXNlcnZlIiBzdHlsZT0iZW5hYmxlLWJhY2tncm91bmQ6bmV3IDAgMCAyMCAyMDsiIHZpZXdCb3g9IjAgMCAyMCAyMCIgeT0iMHB4IiB4PSIwcHgiIGlkPSJMYXllcl8xIiB2ZXJzaW9uPSIxLjEiPiYjeGE7PHN0eWxlIHR5cGU9InRleHQvY3NzIj4mI3hhOwkuc3Qwe2ZpbGw6bm9uZTt9JiN4YTsJLnN0MXtmaWxsOiMzQjY5N0U7fSYjeGE7CS5zdDJ7ZmlsbDojRTY1MjJDO30mI3hhOwkuc3Qze2ZpbGw6dXJsKCNTVkdJRF8xXyk7fSYjeGE7CS5zdDR7ZmlsbC1ydWxlOmV2ZW5vZGQ7Y2xpcC1ydWxlOmV2ZW5vZGQ7ZmlsbDp1cmwoI1NWR0lEXzJfKTt9JiN4YTsJLnN0NXtmaWxsOnVybCgjU1ZHSURfM18pO30mI3hhOwkuc3Q2e2ZpbGw6dXJsKCNTVkdJRF80Xyk7fSYjeGE7CS5zdDd7ZmlsbDp1cmwoI1NWR0lEXzVfKTt9JiN4YTsJLnN0OHtmaWxsOnVybCgjU1ZHSURfNl8pO30mI3hhOwkuc3Q5e2ZpbGw6dXJsKCNTVkdJRF83Xyk7fSYjeGE7CS5zdDEwe2ZpbGw6dXJsKCNTVkdJRF84Xyk7fSYjeGE7CS5zdDExe2ZpbGw6dXJsKCNTVkdJRF85Xyk7fSYjeGE7CS5zdDEye2ZpbGw6dXJsKCNTVkdJRF8xMF8pO30mI3hhOwkuc3QxM3tmaWxsOnVybCgjU1ZHSURfMTFfKTt9JiN4YTsJLnN0MTR7ZmlsbDp1cmwoI1NWR0lEXzEyXyk7fSYjeGE7CS5zdDE1e2ZpbGw6dXJsKCNTVkdJRF8xM18pO30mI3hhOwkuc3QxNntmaWxsOnVybCgjU1ZHSURfMTRfKTt9JiN4YTsJLnN0MTd7ZmlsbDp1cmwoI1NWR0lEXzE1Xyk7fSYjeGE7CS5zdDE4e2ZpbGw6dXJsKCNTVkdJRF8xNl8pO30mI3hhOwkuc3QxOXtmaWxsOiNGMDVBMjc7fSYjeGE7CS5zdDIwe2ZpbGw6dXJsKCNTVkdJRF8xN18pO30mI3hhOwkuc3QyMXtmaWxsOnVybCgjU1ZHSURfMThfKTt9JiN4YTsJLnN0MjJ7ZmlsbDp1cmwoI1NWR0lEXzE5Xyk7fSYjeGE7PC9zdHlsZT4mI3hhOzxnPiYjeGE7CSYjeGE7CQk8bGluZWFyR3JhZGllbnQgZ3JhZGllbnRUcmFuc2Zvcm09Im1hdHJpeCgwLjk4ODQgLTAuMTUyMSAwLjE1MjEgMC45ODg0IC01MjQuNDEzOSAtNDExLjAzNTgpIiB5Mj0iNDg2LjAyODYiIHgyPSI0NTcuNjMxNSIgeTE9IjUxMC41NTIzIiB4MT0iNDU3LjYzMTUiIGdyYWRpZW50VW5pdHM9InVzZXJTcGFjZU9uVXNlIiBpZD0iU1ZHSURfMV8iPiYjeGE7CQk8c3RvcCBzdHlsZT0ic3RvcC1jb2xvcjojRkFFRDFFIiBvZmZzZXQ9IjAiLz4mI3hhOwkJPHN0b3Agc3R5bGU9InN0b3AtY29sb3I6I0YxNUIyQiIgb2Zmc2V0PSIxIi8+JiN4YTsJPC9saW5lYXJHcmFkaWVudD4mI3hhOwk8cG9seWdvbiBwb2ludHM9IjUuNywxOS43IDUuNSwxOC4xIDMuOSwxOC40IDQuMSwxOS45IiBjbGFzcz0ic3QzIi8+JiN4YTsJJiN4YTsJCTxsaW5lYXJHcmFkaWVudCBncmFkaWVudFRyYW5zZm9ybT0ibWF0cml4KDAuOTg4NCAtMC4xNTIxIDAuMTUyMSAwLjk4ODQgLTUyNC40MTM5IC00MTEuMDM1OCkiIHkyPSI0ODYuMDI4NiIgeDI9IjQ2Ny45MDUyIiB5MT0iNTEwLjU1MjMiIHgxPSI0NjcuOTA1MiIgZ3JhZGllbnRVbml0cz0idXNlclNwYWNlT25Vc2UiIGlkPSJTVkdJRF8yXyI+JiN4YTsJCTxzdG9wIHN0eWxlPSJzdG9wLWNvbG9yOiNGQUVEMUUiIG9mZnNldD0iMCIvPiYjeGE7CQk8c3RvcCBzdHlsZT0ic3RvcC1jb2xvcjojRjE1QjJCIiBvZmZzZXQ9IjEiLz4mI3hhOwk8L2xpbmVhckdyYWRpZW50PiYjeGE7CTxwb2x5Z29uIHBvaW50cz0iMTguMiwxNS4yIDE4LDEzLjYgMTAuOSwxNC43IDExLjIsMTYuMyIgc3R5bGU9ImZpbGw6dXJsKCNTVkdJRF8yXyk7Ii8+JiN4YTsJJiN4YTsJCTxsaW5lYXJHcmFkaWVudCBncmFkaWVudFRyYW5zZm9ybT0ibWF0cml4KDAuOTg4NCAtMC4xNTIxIDAuMTUyMSAwLjk4ODQgLTUyNC40MTM5IC00MTEuMDM1OCkiIHkyPSI0ODYuMDI4NiIgeDI9IjQ2Mi42NTU3IiB5MT0iNTEwLjU1MjMiIHgxPSI0NjIuNjU1NyIgZ3JhZGllbnRVbml0cz0idXNlclNwYWNlT25Vc2UiIGlkPSJTVkdJRF8zXyI+JiN4YTsJCTxzdG9wIHN0eWxlPSJzdG9wLWNvbG9yOiNGQUVEMUUiIG9mZnNldD0iMCIvPiYjeGE7CQk8c3RvcCBzdHlsZT0ic3RvcC1jb2xvcjojRjE1QjJCIiBvZmZzZXQ9IjEiLz4mI3hhOwk8L2xpbmVhckdyYWRpZW50PiYjeGE7CTxwb2x5Z29uIHBvaW50cz0iOC43LDE2LjcgMTAuMywxNi41IDEwLjEsMTQuOSA4LjUsMTUuMSIgY2xhc3M9InN0NSIvPiYjeGE7CSYjeGE7CQk8bGluZWFyR3JhZGllbnQgZ3JhZGllbnRUcmFuc2Zvcm09Im1hdHJpeCgwLjk4ODQgLTAuMTUyMSAwLjE1MjEgMC45ODg0IC01MjQuNDEzOSAtNDExLjAzNTgpIiB5Mj0iNDg2LjAyODYiIHgyPSI0NjAuMTM5NyIgeTE9IjUxMC41NTIzIiB4MT0iNDYwLjEzOTciIGdyYWRpZW50VW5pdHM9InVzZXJTcGFjZU9uVXNlIiBpZD0iU1ZHSURfNF8iPiYjeGE7CQk8c3RvcCBzdHlsZT0ic3RvcC1jb2xvcjojRkFFRDFFIiBvZmZzZXQ9IjAiLz4mI3hhOwkJPHN0b3Agc3R5bGU9InN0b3AtY29sb3I6I0YxNUIyQiIgb2Zmc2V0PSIxIi8+JiN4YTsJPC9saW5lYXJHcmFkaWVudD4mI3hhOwk8cG9seWdvbiBwb2ludHM9IjguMiwxOS4zIDcuOSwxNy43IDYuNCwxOCA2LjYsMTkuNiIgY2xhc3M9InN0NiIvPiYjeGE7CSYjeGE7CQk8bGluZWFyR3JhZGllbnQgZ3JhZGllbnRUcmFuc2Zvcm09Im1hdHJpeCgwLjk4ODQgLTAuMTUyMSAwLjE1MjEgMC45ODg0IC01MjQuNDEzOSAtNDExLjAzNTgpIiB5Mj0iNDg2LjAyODYiIHgyPSI0NTcuNjI3OCIgeTE9IjUxMC41NTIzIiB4MT0iNDU3LjYyNzgiIGdyYWRpZW50VW5pdHM9InVzZXJTcGFjZU9uVXNlIiBpZD0iU1ZHSURfNV8iPiYjeGE7CQk8c3RvcCBzdHlsZT0ic3RvcC1jb2xvcjojRkFFRDFFIiBvZmZzZXQ9IjAiLz4mI3hhOwkJPHN0b3Agc3R5bGU9InN0b3AtY29sb3I6I0YxNUIyQiIgb2Zmc2V0PSIxIi8+JiN4YTsJPC9saW5lYXJHcmFkaWVudD4mI3hhOwk8cG9seWdvbiBwb2ludHM9IjMuNSwxNS45IDMuNywxNy41IDUuMywxNy4yIDUuMSwxNS42IiBjbGFzcz0ic3Q3Ii8+JiN4YTsJJiN4YTsJCTxsaW5lYXJHcmFkaWVudCBncmFkaWVudFRyYW5zZm9ybT0ibWF0cml4KDAuOTg4NCAtMC4xNTIxIDAuMTUyMSAwLjk4ODQgLTUyNC40MTM5IC00MTEuMDM1OCkiIHkyPSI0ODYuMDI4NiIgeDI9IjQ2Ny45MDg5IiB5MT0iNTEwLjU1MjMiIHgxPSI0NjcuOTA4OSIgZ3JhZGllbnRVbml0cz0idXNlclNwYWNlT25Vc2UiIGlkPSJTVkdJRF82XyI+JiN4YTsJCTxzdG9wIHN0eWxlPSJzdG9wLWNvbG9yOiNGQUVEMUUiIG9mZnNldD0iMCIvPiYjeGE7CQk8c3RvcCBzdHlsZT0ic3RvcC1jb2xvcjojRjE1QjJCIiBvZmZzZXQ9IjEiLz4mI3hhOwk8L2xpbmVhckdyYWRpZW50PiYjeGE7CTxwb2x5Z29uIHBvaW50cz0iMTEuMywxNy4yIDExLjYsMTguOCAxOC42LDE3LjcgMTguMywxNi4xIiBjbGFzcz0ic3Q4Ii8+JiN4YTsJJiN4YTsJCTxsaW5lYXJHcmFkaWVudCBncmFkaWVudFRyYW5zZm9ybT0ibWF0cml4KDAuOTg4NCAtMC4xNTIxIDAuMTUyMSAwLjk4ODQgLTUyNC40MTM5IC00MTEuMDM1OCkiIHkyPSI0ODYuMDI4NiIgeDI9IjQ2Mi42NTgyIiB5MT0iNTEwLjU1MjMiIHgxPSI0NjIuNjU4MiIgZ3JhZGllbnRVbml0cz0idXNlclNwYWNlT25Vc2UiIGlkPSJTVkdJRF83XyI+JiN4YTsJCTxzdG9wIHN0eWxlPSJzdG9wLWNvbG9yOiNGQUVEMUUiIG9mZnNldD0iMCIvPiYjeGE7CQk8c3RvcCBzdHlsZT0ic3RvcC1jb2xvcjojRjE1QjJCIiBvZmZzZXQ9IjEiLz4mI3hhOwk8L2xpbmVhckdyYWRpZW50PiYjeGE7CTxwb2x5Z29uIHBvaW50cz0iOS4xLDE5LjIgMTAuNywxOC45IDEwLjQsMTcuNCA4LjksMTcuNiIgY2xhc3M9InN0OSIvPiYjeGE7CSYjeGE7CQk8bGluZWFyR3JhZGllbnQgZ3JhZGllbnRUcmFuc2Zvcm09Im1hdHJpeCgwLjk4ODQgLTAuMTUyMSAwLjE1MjEgMC45ODg0IC01MjQuNDEzOSAtNDExLjAzNTgpIiB5Mj0iNDg2LjAyODYiIHgyPSI0NjAuMTQ2MiIgeTE9IjUxMC41NTIzIiB4MT0iNDYwLjE0NjIiIGdyYWRpZW50VW5pdHM9InVzZXJTcGFjZU9uVXNlIiBpZD0iU1ZHSURfOF8iPiYjeGE7CQk8c3RvcCBzdHlsZT0ic3RvcC1jb2xvcjojRkFFRDFFIiBvZmZzZXQ9IjAiLz4mI3hhOwkJPHN0b3Agc3R5bGU9InN0b3AtY29sb3I6I0YxNUIyQiIgb2Zmc2V0PSIxIi8+JiN4YTsJPC9saW5lYXJHcmFkaWVudD4mI3hhOwk8cG9seWdvbiBwb2ludHM9IjYsMTUuNSA2LjIsMTcuMSA3LjgsMTYuOCA3LjYsMTUuMyIgY2xhc3M9InN0MTAiLz4mI3hhOwkmI3hhOwkJPGxpbmVhckdyYWRpZW50IGdyYWRpZW50VHJhbnNmb3JtPSJtYXRyaXgoMC45ODg0IC0wLjE1MjEgMC4xNTIxIDAuOTg4NCAtNTI0LjQxMzkgLTQxMS4wMzU4KSIgeTI9IjQ4Ni44MTczIiB4Mj0iNDU3LjE2NzkiIHkxPSI1MTAuMDc1OSIgeDE9IjQ1Ny4xNjc5IiBncmFkaWVudFVuaXRzPSJ1c2VyU3BhY2VPblVzZSIgaWQ9IlNWR0lEXzlfIj4mI3hhOwkJPHN0b3Agc3R5bGU9InN0b3AtY29sb3I6I0ZBRUQxRSIgb2Zmc2V0PSIwIi8+JiN4YTsJCTxzdG9wIHN0eWxlPSJzdG9wLWNvbG9yOiNGMTVCMkIiIG9mZnNldD0iMSIvPiYjeGE7CTwvbGluZWFyR3JhZGllbnQ+JiN4YTsJPHBvbHlnb24gcG9pbnRzPSI0LDE0LjkgMi4xLDIuMiAxLjQsMi4zIDMuNCwxNSIgY2xhc3M9InN0MTEiLz4mI3hhOwkmI3hhOwkJPGxpbmVhckdyYWRpZW50IGdyYWRpZW50VHJhbnNmb3JtPSJtYXRyaXgoMC45ODg0IC0wLjE1MjEgMC4xNTIxIDAuOTg4NCAtNTI0LjQxMzkgLTQxMS4wMzU4KSIgeTI9IjQ4NS43NDkzIiB4Mj0iNDU4LjA5OTIiIHkxPSI1MTAuNzIwOSIgeDE9IjQ1OC4wOTkyIiBncmFkaWVudFVuaXRzPSJ1c2VyU3BhY2VPblVzZSIgaWQ9IlNWR0lEXzEwXyI+JiN4YTsJCTxzdG9wIHN0eWxlPSJzdG9wLWNvbG9yOiNGQUVEMUUiIG9mZnNldD0iMCIvPiYjeGE7CQk8c3RvcCBzdHlsZT0ic3RvcC1jb2xvcjojRjE1QjJCIiBvZmZzZXQ9IjEiLz4mI3hhOwk8L2xpbmVhckdyYWRpZW50PiYjeGE7CTxwb2x5Z29uIHBvaW50cz0iNSwxNC43IDIuOSwxLjEgMi4yLDEuMiA0LjMsMTQuOCIgY2xhc3M9InN0MTIiLz4mI3hhOwkmI3hhOwkJPGxpbmVhckdyYWRpZW50IGdyYWRpZW50VHJhbnNmb3JtPSJtYXRyaXgoMC45ODg0IC0wLjE1MjEgMC4xNTIxIDAuOTg4NCAtNTI0LjQxMzkgLTQxMS4wMzU4KSIgeTI9IjQ4NC44MTA4IiB4Mj0iNDU5LjY4OTkiIHkxPSI1MTEuMjg3NyIgeDE9IjQ1OS42ODk5IiBncmFkaWVudFVuaXRzPSJ1c2VyU3BhY2VPblVzZSIgaWQ9IlNWR0lEXzExXyI+JiN4YTsJCTxzdG9wIHN0eWxlPSJzdG9wLWNvbG9yOiNGQUVEMUUiIG9mZnNldD0iMCIvPiYjeGE7CQk8c3RvcCBzdHlsZT0ic3RvcC1jb2xvcjojRjE1QjJCIiBvZmZzZXQ9IjEiLz4mI3hhOwk8L2xpbmVhckdyYWRpZW50PiYjeGE7CTxwb2x5Z29uIHBvaW50cz0iNi41LDE0LjUgNC4zLDAgMy42LDAuMSA1LjksMTQuNiIgY2xhc3M9InN0MTMiLz4mI3hhOwkmI3hhOwkJPGxpbmVhckdyYWRpZW50IGdyYWRpZW50VHJhbnNmb3JtPSJtYXRyaXgoMC45ODg0IC0wLjE1MjEgMC4xNTIxIDAuOTg4NCAtNTI0LjQxMzkgLTQxMS4wMzU4KSIgeTI9IjQ4Ni4yNjg4IiB4Mj0iNDYwLjYxNjYiIHkxPSI1MTAuNDA3MiIgeDE9IjQ2MC42MTY2IiBncmFkaWVudFVuaXRzPSJ1c2VyU3BhY2VPblVzZSIgaWQ9IlNWR0lEXzEyXyI+JiN4YTsJCTxzdG9wIHN0eWxlPSJzdG9wLWNvbG9yOiNGQUVEMUUiIG9mZnNldD0iMCIvPiYjeGE7CQk8c3RvcCBzdHlsZT0ic3RvcC1jb2xvcjojRjE1QjJCIiBvZmZzZXQ9IjEiLz4mI3hhOwk8L2xpbmVhckdyYWRpZW50PiYjeGE7CTxwb2x5Z29uIHBvaW50cz0iNy40LDE0LjQgNS40LDEuMiA0LjcsMS4zIDYuOCwxNC41IiBjbGFzcz0ic3QxNCIvPiYjeGE7CSYjeGE7CQk8bGluZWFyR3JhZGllbnQgZ3JhZGllbnRUcmFuc2Zvcm09Im1hdHJpeCgwLjk4ODQgLTAuMTUyMSAwLjE1MjEgMC45ODg0IC01MjQuNDEzOSAtNDExLjAzNTgpIiB5Mj0iNDg3Ljk0OTQiIHgyPSI0NjIuMTk3NCIgeTE9IjUwOS4zOTIyIiB4MT0iNDYyLjE5NzQiIGdyYWRpZW50VW5pdHM9InVzZXJTcGFjZU9uVXNlIiBpZD0iU1ZHSURfMTNfIj4mI3hhOwkJPHN0b3Agc3R5bGU9InN0b3AtY29sb3I6I0ZBRUQxRSIgb2Zmc2V0PSIwIi8+JiN4YTsJCTxzdG9wIHN0eWxlPSJzdG9wLWNvbG9yOiNGMTVCMkIiIG9mZnNldD0iMSIvPiYjeGE7CTwvbGluZWFyR3JhZGllbnQ+JiN4YTsJPHBvbHlnb24gcG9pbnRzPSI5LDE0LjEgNy4yLDIuNCA2LjUsMi41IDguMywxNC4yIiBjbGFzcz0ic3QxNSIvPiYjeGE7CSYjeGE7CQk8bGluZWFyR3JhZGllbnQgZ3JhZGllbnRUcmFuc2Zvcm09Im1hdHJpeCgwLjk4ODQgLTAuMTUyMSAwLjE1MjEgMC45ODg0IC01MjQuNDEzOSAtNDExLjAzNTgpIiB5Mj0iNDg3LjQzNzIiIHgyPSI0NjMuMTIyOSIgeTE9IjUwOS43MDE2IiB4MT0iNDYzLjEyMjkiIGdyYWRpZW50VW5pdHM9InVzZXJTcGFjZU9uVXNlIiBpZD0iU1ZHSURfMTRfIj4mI3hhOwkJPHN0b3Agc3R5bGU9InN0b3AtY29sb3I6I0ZBRUQxRSIgb2Zmc2V0PSIwIi8+JiN4YTsJCTxzdG9wIHN0eWxlPSJzdG9wLWNvbG9yOiNGMTVCMkIiIG9mZnNldD0iMSIvPiYjeGE7CTwvbGluZWFyR3JhZGllbnQ+JiN4YTsJPHBvbHlnb24gcG9pbnRzPSI5LjksMTQgOCwxLjggNy40LDEuOSA5LjMsMTQuMSIgY2xhc3M9InN0MTYiLz4mI3hhOzwvZz4mI3hhOzwvc3ZnPg==;" parent="1" vertex="1">
                    <mxGeometry x="1520" y="-329" width="79" height="79" as="geometry"/>
                </mxCell>
                <mxCell id="PG-S5D8SCmHSsYNVxMVk-161" value="" style="shape=image;imageAspect=0;aspect=fixed;verticalLabelPosition=bottom;verticalAlign=top;fontFamily=Helvetica;fontSize=12;fontColor=default;labelBackgroundColor=default;image=data:image/svg+xml,PHN2ZyB4bWxucz0iaHR0cDovL3d3dy53My5vcmcvMjAwMC9zdmciIHZpZXdCb3g9IjAgMCAxMjggMTI4Ij4mI3hhOyAgICA8cGF0aCBkPSJNMTEyIDBIMTJ2NDhjMTcuMyAwIDMzLjU0IDQuNDUzIDQ3LjczIDEyLjE4OFptMCAwIiBmaWxsPSIjZjA0ZTk4Ii8+JiN4YTsgICAgPHBhdGggZD0iTTEyIDQ4djY3LjE1Mmw0Ny43My01NC45NkE5OS40MjIgOTkuNDIyIDAgMCAwIDEyIDQ4IiBmaWxsPSIjMzQzNzQxIi8+JiN4YTsgICAgPHBhdGggZD0ibTcwLjA0IDY2LjYyMS00OC45NzQgNTYuNDA2TDE2LjczOCAxMjhoOTMuMjU4Yy01LjEyMS0yNS4yMS0xOS43NTgtNDYuOTQ1LTM5Ljk1Ny02MS4zNzkiIGZpbGw9IiMwMGJmYjMiLz4mI3hhOzwvc3ZnPg==;" parent="1" vertex="1">
                    <mxGeometry x="1360" y="-321.5" width="71.5" height="71.5" as="geometry"/>
                </mxCell>
                <mxCell id="PG-S5D8SCmHSsYNVxMVk-177" style="edgeStyle=orthogonalEdgeStyle;shape=connector;curved=0;rounded=1;orthogonalLoop=1;jettySize=auto;html=1;shadow=0;dashed=1;dashPattern=8 8;strokeColor=#23445d;align=center;verticalAlign=middle;fontFamily=Helvetica;fontSize=12;fontColor=default;labelBackgroundColor=default;elbow=vertical;startSize=8;endArrow=open;endFill=0;endSize=8;flowAnimation=0;fillColor=#bac8d3;" parent="1" source="PG-S5D8SCmHSsYNVxMVk-162" target="PG-S5D8SCmHSsYNVxMVk-163" edge="1">
                    <mxGeometry relative="1" as="geometry"/>
                </mxCell>
                <mxCell id="PG-S5D8SCmHSsYNVxMVk-162" value="" style="shape=image;imageAspect=0;aspect=fixed;verticalLabelPosition=bottom;verticalAlign=top;fontFamily=Helvetica;fontSize=12;fontColor=default;labelBackgroundColor=default;image=data:image/svg+xml,PHN2ZyB4bWxuczp4bGluaz0iaHR0cDovL3d3dy53My5vcmcvMTk5OS94bGluayIgeG1sbnM9Imh0dHA6Ly93d3cudzMub3JnLzIwMDAvc3ZnIiB2aWV3Qm94PSIwIDAgMTIxLjg1IDk5LjE3Ij48ZGVmcz48c3R5bGU+LmNscy0xe2ZpbGw6dXJsKCNsaW5lYXItZ3JhZGllbnQpO308L3N0eWxlPjxsaW5lYXJHcmFkaWVudCBncmFkaWVudFVuaXRzPSJ1c2VyU3BhY2VPblVzZSIgeTI9IjU3IiB4Mj0iMjcuMiIgeTE9IjEzLjQiIHgxPSIxNjguNTUiIGlkPSJsaW5lYXItZ3JhZGllbnQiPjxzdG9wIHN0b3AtY29sb3I9IiNmZmYxMDAiIG9mZnNldD0iMCIvPjxzdG9wIHN0b3AtY29sb3I9IiNmMDVhMjgiIG9mZnNldD0iMSIvPjwvbGluZWFyR3JhZGllbnQ+PC9kZWZzPjxnIGRhdGEtbmFtZT0iTGF5ZXIgNiIgaWQ9IkxheWVyXzYiPjxwYXRoIGQ9Ik00LjY2LDI1SDIuMzdhMi4zNywyLjM3LDAsMCwwLDAsNC43NEg0LjY2YTIuMzcsMi4zNywwLDEsMCwwLTQuNzRaTTQ4LjQ4LDU5LjU3SDQ2LjE5YTIuMzcsMi4zNywwLDEsMCwwLDQuNzRoMi4yOWEyLjM3LDIuMzcsMCwxLDAsMC00Ljc0Wk00Ni41NiwzN2EyLjM3LDIuMzcsMCwwLDAtMi4zNy0yLjM3SDM2LjI3YTIuMzcsMi4zNywwLDAsMCwwLDQuNzRoNy45MkEyLjM3LDIuMzcsMCwwLDAsNDYuNTYsMzdaTTEyMS43MywyMi4xLDExOS4zMiw4LjU2QTkuODgsOS44OCwwLDAsMCwxMDkuMDcsMEgxNi4yNEE2LjI4LDYuMjgsMCwwLDAsOS45LDcuN2wyLjU0LDE0LjRhMy4zOCwzLjM4LDAsMCwwLC4wOC4zNHYwYy4zLDEuNzYtLjU5LDIuNDctMS4zOSwyLjczaDBhMi4zNywyLjM3LDAsMCwwLC43OSw0LjZIMTE1LjM5QTYuMjgsNi4yOCwwLDAsMCwxMjEuNzMsMjIuMVpNOTAuMTUsNzYuNDJjLTEtNS4yNS00LTcuMi03LjM5LTcuMkg1OC4yNGEyLjM5LDIuMzksMCwwLDAtMi4zNywyLjRBMi4zNywyLjM3LDAsMCwwLDU4LDc0aDBjLjc4LjE0LDEuNjIsMS4xNiwyLjE1LDMuNjhsMi41MiwxNGE5LjU5LDkuNTksMCwwLDAsOS4xOSw3LjU0bDE0LjYzLS4wN2E2LjI4LDYuMjgsMCwwLDAsNi40NC03LjYxWk01Ny43Myw2NC40OEg4NC4zNGEyLjI3LDIuMjcsMCwwLDAsLjU5LS4wOWMyLjQ2LS41MiwyLjU4LTIuNTIsMi4yNi00LjUxTDgzLjgsNDEuMjdjLS45My00Ljg0LTMuNzQtNi43NS03LjQzLTYuNzVINTJhMi4zNywyLjM3LDAsMCwwLS4yOCw0LjcyaDBjLjgxLjE1LDEuNywxLjI0LDIuMjIsNGwyLjU3LDE0LjI0djBBMS45MiwxLjkyLDAsMCwxLDU1LDU5Ljg3aDBhMi4zNiwyLjM2LDAsMCwwLC43OSw0LjU5aDEuOVoiIGNsYXNzPSJjbHMtMSIvPjwvZz48L3N2Zz4=;" parent="1" vertex="1">
                    <mxGeometry x="1532" y="16" width="90.77" height="74" as="geometry"/>
                </mxCell>
                <mxCell id="PG-S5D8SCmHSsYNVxMVk-163" value="" style="shape=image;imageAspect=0;aspect=fixed;verticalLabelPosition=bottom;verticalAlign=top;fontFamily=Helvetica;fontSize=12;fontColor=default;labelBackgroundColor=default;image=data:image/svg+xml,PHN2ZyB4bWxucz0iaHR0cDovL3d3dy53My5vcmcvMjAwMC9zdmciIHZpZXdCb3g9IjAgMCAxMjggMTI4Ij48bGluZWFyR3JhZGllbnQgZ3JhZGllbnRUcmFuc2Zvcm09InRyYW5zbGF0ZSgtLjIzIDI4LjQ2Mikgc2NhbGUoMS40MDExKSIgeTI9IjguODAyIiB4Mj0iNDUuODQyIiB5MT0iODkuNTciIHgxPSI0NS44NDIiIGdyYWRpZW50VW5pdHM9InVzZXJTcGFjZU9uVXNlIiBpZD0iZ3JhZmFuYS1vcmlnaW5hbC1hIj48c3RvcCBzdG9wLWNvbG9yPSIjZmNlZTFmIiBvZmZzZXQ9IjAiLz48c3RvcCBzdG9wLWNvbG9yPSIjZjE1YjJhIiBvZmZzZXQ9IjEiLz48L2xpbmVhckdyYWRpZW50PjxwYXRoIGQ9Ik0xMjAuOCA1Ni45Yy0uMi0yLjEtLjYtNC41LTEuMi03LjJzLTEuOC01LjUtMy4yLTguNmMtMS41LTMtMy40LTYuMi01LjktOS4xLTEtMS4yLTIuMS0yLjMtMy4yLTMuNSAxLjgtNi45LTIuMS0xMy0yLjEtMTMtNi43LS40LTEwLjkgMi4xLTEyLjQgMy4yLS4yLS4xLS42LS4yLS44LS4zLTEuMS0uNC0yLjMtLjktMy41LTEuMy0xLjItLjMtMi40LS44LTMuNi0xLTEuMi0uMy0yLjUtLjYtMy45LS44LS4yIDAtLjQtLjEtLjctLjFDNzcuNSA2IDY5LjEgMiA2OS4xIDJjLTkuNiA2LjItMTEuNCAxNC40LTExLjQgMTQuNHMwIC4yLS4xLjRjLS42LjEtMSAuMy0xLjUuNC0uNy4yLTEuNC40LTIuMS44bC0yLjEuOWMtMS40LjctMi44IDEuMy00LjIgMi4xLTEuMy44LTIuNiAxLjUtMy45IDIuNC0uMi0uMS0uMy0uMi0uMy0uMi0xMi45LTUtMjQuMyAxLTI0LjMgMS0xIDEzLjggNS4yIDIyLjMgNi40IDIzLjktLjMuOS0uNiAxLjctLjkgMi41LTEgMy4xLTEuNyA2LjMtMi4xIDkuNi0uMS40LS4xIDEtLjIgMS40QzEwLjUgNjcuNSA3IDc5LjYgNyA3OS42IDE2LjkgOTEgMjguNSA5MS43IDI4LjUgOTEuN2MxLjQgMi42IDMuMiA1LjIgNS4xIDcuNS44IDEgMS43IDEuOSAyLjUgMi45LTMuNiAxMC4zLjYgMTkgLjYgMTkgMTEuMS40IDE4LjQtNC44IDE5LjktNi4xIDEuMS4zIDIuMi43IDMuMyAxIDMuNC45IDYuOSAxLjQgMTAuMyAxLjVoNC41YzUuMiA3LjUgMTQuNCA4LjUgMTQuNCA4LjUgNi41LTYuOSA2LjktMTMuNiA2LjktMTUuMnYtLjZjMS4zLTEgMi42LTIgNC0zLjEgMi42LTIuMyA0LjgtNS4xIDYuOC03LjkuMi0uMi4zLS42LjYtLjggNy40LjQgMTIuNS00LjYgMTIuNS00LjYtMS4yLTcuNy01LjYtMTEuNC02LjUtMTIuMWwtLjEtLjEtLjEtLjEtLjEtLjFjMC0uNC4xLS45LjEtMS40LjEtLjkuMS0xLjcuMS0yLjV2LTMuM2MwLS4yIDAtLjQtLjEtLjdsLS4xLS43LS4xLS43Yy0uMS0uOS0uMy0xLjctLjQtMi41LS44LTMuMy0yLjEtNi41LTMuNy05LjItMS44LTIuOS0zLjktNS4zLTYuMy03LjUtMi40LTIuMS01LjEtMy45LTcuOS01LjEtMi45LTEuMy01LjctMi4xLTguNy0yLjQtMS40LS4yLTMtLjItNC40LS4yaC0yLjNjLS44LjEtMS41LjItMi4yLjMtMyAuNi01LjcgMS43LTguMSAzLjEtMi40IDEuNC00LjUgMy4zLTYuMyA1LjQtMS44IDIuMS0zLjEgNC4zLTQgNi43LS45IDIuMy0xLjQgNC44LTEuNSA3LjJ2Mi42YzAgLjMgMCAuNi4xLjkuMSAxLjIuMyAyLjMuNyAzLjQuNyAyLjIgMS43IDQuMiAzIDUuOXMyLjggMy4xIDQuNCA0LjJjMS43IDEuMSAzLjMgMS45IDUuMSAyLjRzMy40LjggNSAuN2gyLjNjLjIgMCAuNC0uMS42LS4xLjIgMCAuMy0uMS42LS4xLjMtLjEuOC0uMiAxLjEtLjMuNy0uMiAxLjMtLjYgMi0uOC43LS4zIDEuMi0uNyAxLjctMSAuMS0uMS4zLS4yLjQtLjMuNi0uNC43LTEuMi4yLTEuOC0uNC0uNC0xLjEtLjYtMS43LS4zLS4xLjEtLjIuMS0uNC4yLS40LjItMSAuNC0xLjQuNi0uNi4xLTEuMS4zLTEuNy40LS4zIDAtLjYuMS0uOS4xaC0xLjhzLS4xIDAgMCAwaC0uN2MtLjEgMC0uMyAwLS40LS4xLTEuMi0uMi0yLjUtLjYtMy43LTEuMS0xLjItLjYtMi40LTEuMy0zLjQtMi4zLTEuMS0xLTItMi4xLTIuOC0zLjQtLjgtMS4zLTEuMi0yLjgtMS40LTQuMi0uMS0uOC0uMi0xLjUtLjEtMi4zdi0uN2MwIC4xIDAgMCAwIDBWNzBjMC0uNC4xLS44LjItMS4yLjYtMy4zIDIuMi02LjUgNC43LTguOS43LS43IDEuMy0xLjIgMi4xLTEuNy44LS42IDEuNS0xIDIuMy0xLjMuOC0uMyAxLjctLjcgMi41LS45LjktLjIgMS44LS40IDIuNi0uNC40IDAgLjktLjEgMS4zLS4xaC44Yy4xIDAgMCAwIDAgMGguNGMxIC4xIDIgLjIgMi45LjQgMS45LjQgMy43IDEuMSA1LjUgMi4xIDMuNSAyIDYuNSA1IDguMyA4LjYuOSAxLjggMS41IDMuNyAxLjkgNS44LjEuNi4xIDEgLjIgMS41djIuN2MwIC42LS4xIDEuMS0uMSAxLjctLjEuNi0uMSAxLjEtLjIgMS43cy0uMiAxLjEtLjMgMS43Yy0uMiAxLjEtLjcgMi4xLTEgMy4yLS44IDIuMS0xLjkgNC4xLTMuMiA1LjgtMi42IDMuNi02LjMgNi42LTEwLjMgOC41LTIuMS45LTQuMiAxLjctNi40IDItMS4xLjItMi4yLjMtMy4zLjNoLTEuNmMuMSAwIDAgMCAwIDBoLS4xYy0uNiAwLTEuMiAwLTEuOC0uMS0yLjQtLjItNC43LS43LTctMS4zLTIuMy0uNy00LjUtMS41LTYuNi0yLjYtNC4yLTIuMi03LjktNS40LTEwLjktOS0xLjQtMS45LTIuOC0zLjktMy45LTUuOXMtMS45LTQuMy0yLjUtNi41Yy0uNy0yLjItMS00LjUtMS4xLTYuOHYtMy41YzAtMS4xLjEtMi4zLjMtMy41LjEtMS4yLjMtMi4zLjYtMy41LjItMS4yLjYtMi4zLjktMy41LjctMi4zIDEuNC00LjUgMi40LTYuNiAyLTQuMiA0LjUtNy45IDcuNS0xMC45LjgtLjggMS41LTEuNCAyLjQtMi4xLjMtLjMgMS4xLTEgMi0xLjVzMS44LTEuMSAyLjgtMS41Yy40LS4yLjktLjQgMS40LS43LjItLjEuNC0uMi44LS4zLjItLjEuNC0uMi44LS4zIDEtLjQgMi0uOCAzLTEuMS4yLS4xLjYtLjEuOC0uMi4yLS4xLjYtLjEuOC0uMi42LS4xIDEtLjIgMS41LS40LjItLjEuNi0uMS44LS4yLjIgMCAuNi0uMS44LS4xLjIgMCAuNi0uMS44LS4xbC40LS4xLjQtLjFjLjIgMCAuNi0uMS44LS4xLjMgMCAuNi0uMS45LS4xLjIgMCAuNy0uMS45LS4xLjIgMCAuMyAwIC42LS4xaC43Yy4zIDAgLjYgMCAuOS0uMWguNHMuMSAwIDAgMGg0LjFjMiAuMSA0IC4zIDUuOC43IDMuNy43IDcuNCAxLjkgMTAuNiAzLjUgMy4yIDEuNSA2LjIgMy41IDguNiA1LjYuMS4xLjMuMi40LjQuMS4xLjMuMi40LjQuMy4yLjYuNi45LjguMy4yLjYuNi45LjguMi4zLjYuNi44LjkgMS4xIDEuMSAyLjEgMi4zIDMgMy40IDEuOCAyLjMgMy4yIDQuNiA0LjMgNi44LjEuMS4xLjIuMi40LjEuMS4xLjIuMi40cy4yLjYuNC44Yy4xLjIuMi42LjMuOC4xLjIuMi42LjMuOC40IDEgLjggMiAxLjEgMyAuNiAxLjUuOSAyLjkgMS4yIDQgLjEuNC42LjggMSAuOC42IDAgLjktLjQuOS0xLS4zLTEuNy0uMy0zLjEtLjQtNC44eiIgZmlsbD0idXJsKCNncmFmYW5hLW9yaWdpbmFsLWEpIi8+PC9zdmc+;" parent="1" vertex="1">
                    <mxGeometry x="1610" y="-158" width="88" height="88" as="geometry"/>
                </mxCell>
                <mxCell id="npFnTr0Nz-ztX7RqOmGq-6" style="edgeStyle=orthogonalEdgeStyle;shape=connector;rounded=1;orthogonalLoop=1;jettySize=auto;html=1;dashed=1;dashPattern=8 8;strokeColor=default;align=center;verticalAlign=middle;fontFamily=Helvetica;fontSize=12;fontColor=default;labelBackgroundColor=default;startSize=8;endArrow=open;endFill=0;endSize=8;" parent="1" source="PG-S5D8SCmHSsYNVxMVk-164" edge="1">
                    <mxGeometry relative="1" as="geometry">
                        <mxPoint x="1610" y="-120" as="targetPoint"/>
                        <Array as="points">
                            <mxPoint x="1340" y="65"/>
                            <mxPoint x="1340" y="-120"/>
                        </Array>
                    </mxGeometry>
                </mxCell>
                <mxCell id="PG-S5D8SCmHSsYNVxMVk-164" value="" style="shape=image;imageAspect=0;aspect=fixed;verticalLabelPosition=bottom;verticalAlign=top;fontFamily=Helvetica;fontSize=12;fontColor=default;labelBackgroundColor=default;image=data:image/svg+xml,PHN2ZyB4bWxucz0iaHR0cDovL3d3dy53My5vcmcvMjAwMC9zdmciIHZpZXdCb3g9IjAgMCAxMjggMTI4Ij4mI3hhOyAgICA8cGF0aCBkPSJNMzguNDIyIDExMy42OGMtMS44MDUuNDE0LTcuMTE3IDMuMjg5LTExLjcxMSA0LjE2LTQuNTkuODc1LTguNTYzIDEuMzM2LTkuOTU3IDEuODUxLTEuMzkuNTEyLTIuNDczIDEuNTQuMjU4IDIuNTY3IDIuNzM4IDEuMDI3IDE1Ljk5MiAxLjM4NyAxNy4xOCAwIDEuMTg3LTEuMzg3LS44Mi0xLjk4OC0zLjcxNS0xLjk1LTIuMDYzLjAyNC0xLjgxMy0uNjktMS44MDUtLjc3MyAwIDAgLjEyOS0uODk4IDMuMy0xLjMzNiAzLjE2OS0uNDMzIDE3LjE4LTEuNzQyIDE2LjkyMy0zLjIzNC0uMjU4LTEuNDg4LTguNjY4LTEuNjk1LTEwLjQ3My0xLjI4NVptLTYuNDA2IDEwLjQxYy0uMDk0LS40MjYtMS4zNzUtLjUyLTIuODU2LS4xOTUtMS40ODQuMzI0LTIuNjEuOTMtMi41MTUgMS4zNTkuMDkzLjQzIDEuMzcuNTIgMi44NTUuMiAxLjQ4NC0uMzI1IDIuNjA1LS45MzQgMi41MTYtMS4zNjRabS02LjE2NC0uMDA0Yy0uMDM2LS40MjItMS4zNTItLjY2OC0yLjk0Mi0uNTQzLTEuNTkuMTI5LTIuODUxLjU3NC0yLjgyIDEgLjAzNS40MjIgMS4zNTEuNjY0IDIuOTQxLjUzNSAxLjU5NC0uMTIxIDIuODU2LS41NjYgMi44Mi0uOTkyWm0tNi4wNDMtLjY2NGMtLjA0Ny0uMzI4LS45NDItLjQ4LTItLjMzNi0xLjA2My4xNC0xLjg4My41MjctMS44MzYuODYuMDQzLjMyNy45NDEuNDggMiAuMzM1IDEuMDU4LS4xNDQgMS44NzktLjUyNyAxLjgzNi0uODZabS0zLjgyLS41ODZjLS4wNC0uMjYyLS45LS4zNi0xLjkyMy0uMjExLTEuMDIzLjE0NS0xLjgxNi40OC0xLjc4Ljc0Ni4wMzguMjcuOTAyLjM2NyAxLjkyMS4yMTkgMS4wMi0uMTQ5IDEuODItLjQ4NSAxLjc3Ny0uNzU0Wm0tLjg1Mi0xLjA1Yy0uMDQtLjI3LS44OTktLjM2NC0xLjkyMi0uMjE2LTEuMDI0LjE0OS0xLjgyLjQ4NS0xLjc4MS43NS4wMzkuMjY2LjkwMi4zNjQgMS45MjEuMjE1IDEuMDI0LS4xNDQgMS44Mi0uNDg0IDEuNzgyLS43NVptLS40NjUtMS4xNTdjLS4wMzUtLjIzLS43ODEtLjMxNy0xLjY3Mi0uMTg4LS44ODcuMTMzLTEuNTc4LjQyMi0xLjU0My42NTcuMDMxLjIzLjc3Ny4zMTIgMS42NjguMTgzLjg5LS4xMjUgMS41ODItLjQxOCAxLjU0Ny0uNjUyWm01MS4yOTctNS41MTJjLTMuMTQ1LjE1Ni0xMC4yNjYtLjIwMy0xMS4yNDYgMS40NDItLjk4IDEuNjQgMi44OSAyLjI1NyA4Ljk3NiAxLjc0NiA2LjA5LS41MTYgMTQuNzAzLTEuMTg0IDE1LjA2Ny0zLjAzMi4zNTktMS44NDctMS42MDItMS40OTItMS44MDktMi42NjgtLjIwNy0xLjE4MyAyLjE2OC0xLjE4MyAyLjYzMy0yLjkzLjQ2NS0xLjc0NS0zLjE5NS0xLjU0Mi02LjQ1LTEuNTQyLTMuMjUgMC04LjY2My4zMDgtOS4xODMgMi4wMDQtLjUxNiAxLjY5NSAyLjQ3NyAxLjY5NSA0LjU5NCAyLjEwNSAyLjExMy40MTQgMS40OTYgMS4xODQgMS40OTYgMS4xODQtLjEwNiAxLjA3OC0uOTMgMS41MzktNC4wNzggMS42OTFabS01LjY4NCA0LjUxMmMwLS40OTItMS4yMjItLjg4Ny0yLjczLS44ODdzLTIuNzI3LjM5NS0yLjcyNy44ODdjMCAuNDg0IDEuMjE5Ljg4MyAyLjcyNy44ODMgMS41MDggMCAyLjczLS4zOTkgMi43My0uODgzWm02LjExMy0uMTk1YzAtLjQ1LS44MTYtLjgwOS0xLjgyLS44MDlzLTEuODIuMzYtMS44Mi44MDljMCAuNDQ1LjgxNi44MDggMS44Mi44MDhzMS44Mi0uMzYzIDEuODItLjgwOFptNS44NC0uNTc5YzAtLjM2My0uODk0LS42NTYtMS45OTItLjY1Ni0xLjEwMSAwLTEuOTk2LjI5My0xLjk5Ni42NTYgMCAuMzY0Ljg5NS42NTcgMS45OTYuNjU3IDEuMDk4IDAgMS45OTItLjI5MyAxLjk5Mi0uNjU3Wm0zLjgzMi0uNzNjMC0uMzgzLS42NDgtLjY5NS0xLjQ1My0uNjk1LS44IDAtMS40NTMuMzEyLTEuNDUzLjY5NSAwIC4zODMuNjUyLjY5MSAxLjQ1My42OTEuODA1IDAgMS40NTMtLjMwOCAxLjQ1My0uNjkxWm0zLjc5My0uNzljMC0uMzc0LS42Ni0uNjc1LTEuNDcyLS42NzUtLjgxMyAwLTEuNDcuMy0xLjQ3LjY3NiAwIC4zNzEuNjU3LjY3MiAxLjQ3LjY3Mi44MTIgMCAxLjQ3Mi0uMzAxIDEuNDcyLS42NzJaTTE0LjIzOCA5OC4zOTJjMCAuODc5IDEuOTIyIDEuNzA3IDUuMzI4IDIuNDQ1LS4yNDItMS43NjItLjA5My0zLjUzMS4xMzMtNC45MS0zLjQ5Mi43NDItNS40NiAxLjU4Mi01LjQ2IDIuNDY5Wm0xMDAuNTU5LTIuMjY2YTcuNjA0IDcuNjA0IDAgMCAxLTEuOTUzIDIuOThjLTEuNTQgMS40NTQtMi44ODcgMi4zMjUtNC4wOTQgMi42NDEgNi42Ni0uOTMzIDEwLjYxMy0yLjA5NCAxMC42MTMtMy4zNTEgMC0uODEtMS42MzYtMS41NzktNC41NjYtMi4yN1ptMCAwIiBmaWxsPSIjMjMxZjIwIi8+JiN4YTsgICAgPHBhdGggZD0iTTEwMy40MDYgOTQuMjgxYy0uNDIyLTMuMDktMS43NDYtNC40NzYtMi45MTgtNS42OTktMS4wODYtMS4xNC0yLjExNy0yLjIxNS0xLjc4NS00LjE5MS4zMDktMS44MjkgMS43NjYtMi45NSA0LjE1Mi0zLjI0My0xLjQ0OS05Ljc1LTMuNTc0LTIyLjA0Ni02LjMtMzIuNTM1LTEuMzY0LTUuMjM4LTMuNTE2LTguODc1LTYuNDA3LTExLjI5Ny0zLjMwOCAxLjY4OC03LjI4IDMuNTQtMTEuNzIyIDUuNDU3YTMwNi41MiAzMDYuNTIgMCAwIDEtOS42NzYgMy45NzNjLTIuNTMxIDIuNzA3LTUuMzA1IDUuMzc5LTcuMDA0IDYuMTQtMS4yMDcuNTQtMi4yODUuNzU5LTMuMjE5Ljc1OS0yLjAyIDAtMy4zODYtMS4wMTItNC4wNDMtMS45MS0uNzcuMjAzLTEuMzgyLjMzNS0xLjc5Ny4zNzQtLjQ5Ni4wNTUtMS4yMy4xMTgtMi4xNDguMTg0YTIuOCAyLjggMCAwIDEtLjQ2IDIuODA1Yy0uNzQ3Ljg5LTEuOTQ2IDEuMzQtMy42NDUgMS4zNC0yLjQ0MiAwLTUuOTE4LS45MjYtMTAuNTctMi44MDEtLjYzLS4yNTQtMS4yNTktLjUtMS44OTEtLjczOS0uMzU2LjAwNC0uNzExLjAwNC0xLjA2Ny4wMDRoLS4wMDRjLTQuNDQ1IDAtNy45MTQtLjEzNi0xMC42MzYtLjM1OS0yLjk4NSA2LjE0NS0xLjY4OCAxMi45Ni0uNTk4IDE4LjU5IDEuMDQ3IDUuMzk4IDQuNjc2IDE0Ljk5NiA4LjA0MyAyMy4yNDYgMS4xMzcgMi43ODkgMi4zIDUuNTcgMy40ODggOC4zNCA5LjExLjggMjAuNzkzIDEuMjgxIDMzLjUzMSAxLjI4MSAxNS4xNiAwIDI4LjgxLS42ODQgMzguNDI2LTEuNzc3LS43MDMtMi44NjgtMS41ODYtNi44Ni0xLjc0Mi03Ljg4Wk0yOC4zMiA2OC4wMTFjMC01LjggNC43MjctMTAuNSAxMC41NTUtMTAuNSA1LjgyNCAwIDEwLjU0NyA0LjcgMTAuNTQ3IDEwLjUgMCAyLjg5MS0xLjE3NiA1LjUwOS0zLjA3NCA3LjQxYTEwLjY4MiAxMC42ODIgMCAwIDEtMi4xMzcgMS42NSAxMC40OTkgMTAuNDk5IDAgMCAxLTUuMzM2IDEuNDRjLTUuODI4IDAtMTAuNTU1LTQuNjk4LTEwLjU1NS0xMC41Wk01Ni41IDkwLjI0N2MtMi4yMjMuNjYtMy4wMjMtMS44ODMtMy4yNjItMi45ODguMDE2LS4wMDguMDMyLS4wMi4wNDctLjAzMSAxLjAzNS0uNjQ1IDIuMjM4LTEuMzgzIDMuNTktMS44OTkuMTU2LjQyMi40MDIgMS4xNC41NSAxLjg5OS4yNDcgMS4yOC4yMjMgMi42OC0uOTI1IDMuMDJabTMuNjEzLS44OThjLS41NTQtLjIwNy0uOTcyLTEuMTIxLTEuMjctMi4xMjFhMTguNzE5IDE4LjcxOSAwIDAgMS0uNTE1LTIuMzQ0Yy4yNTgtLjA1OS41MjctLjEwNi43OTctLjE0NS4xMzMtLjAyLjQxOC0uMDM5IDEuMDE2LS4wMzkuNTQ3IDAgMS4yMDcuMDIgMS45MS4wNC4xOTkuMDAzLjQwNi4wMTEuNjE3LjAxMS4wNTkuNDc3LjEyMSAxLjE3Mi4yIDIuMTg0LjAxLjEwNS4wMS4xOTkuMDEuMjkzLjAzMiAyLjUzLTIuMTg3IDIuMzQtMi43NjUgMi4xMlptOS40OTYtNi4zODdjLTEuMDc4LjQ3Ny0yLjY1Ni42OC01LjI5My42OC0uODk0IDAtMS44MTYtLjAyLTIuNjI5LS4wNGE2My4wODIgNjMuMDgyIDAgMCAwLTEuOTI1LS4wMzhjLS41MDggMC0uODguMDE1LTEuMTAyLjA0Mi0yLjQ4OC4zMjktNC41NDMgMS42MS02LjE5NSAyLjY0MS0uNDguMy0uOTM4LjU4Mi0xLjM2LjgxNy0uNjg3LjM3NC0xLjUyMy41NzQtMi40My41NzQtMS42NzEgMC0zLjI0MS0uNjUzLTQuMjA2LTEuNzQ2LS43OTctLjkwNy0xLjEzMy0yLjA0My0uOTY5LTMuMjgyLjUtMy43MTQgNS44MzYtNS42MTMgNi40NDEtNS44MTZsLjk3Ny0uMzMyYTEuNDk2IDEuNDk2IDAgMCAxLS4wNzQtLjI5Yy0uMjktMS43MyAxLjk4LTMuNTQ2IDUuMDctNC4wNThsLjQxNC0uMDU4YzIuNTU5LS4zMTcgNC44MDUuMzk4IDUuNTA0IDEuNjkxbDEuMTkxLjAwOGMyLjcxMS4wMjMgNC45NTQuMzg3IDYuNjUzIDEuMDgyIDEuNzE1LjY5NSAyLjc2MSAxLjcwNyAyLjk1MyAyLjg0OC4zODcgMi4yOTMtLjc0NiA0LjI2NS0zLjAyIDUuMjc3Wm0xLjk1NC0xMi4wMTZjLTUuODI1IDAtMTAuNTQ3LTQuNzAzLTEwLjU0Ny0xMC41MDQgMC01LjggNC43MjItMTAuNTA0IDEwLjU0Ny0xMC41MDQgNS44MjQgMCAxMC41NSA0LjcwNCAxMC41NSAxMC41MDQgMCA1LjgwMS00LjcyMiAxMC41MDQtMTAuNTUgMTAuNTA0Wm0wIDAiIGZpbGw9IiM2N2NmZTMiLz4mI3hhOyAgICA8cGF0aCBkPSJtODUuMDc0IDI1LjA1NS0uMDgyLS4xMzctLjEwMS0uMTMzYy0uMDk4LS4xNTYtLjQ4NS0uMzk0LS41MTYtLjM5OGwtLjA0LS4wMi0uMDE5LS4wMTItLjA3NC0uMDM1aC0uMDA4bC0uMDE1LS4wMDgtLjEwNi0uMDM1LS4yMTUtLjA3NGMtLjE0NC0uMDUtLjMwNC0uMDctLjQ1Ny0uMTAxLS4xNTYtLjAyOC0uMzItLjAyOC0uNDgtLjAzNmE0LjA0NyA0LjA0NyAwIDAgMC0uNDg4LjA0IDMuNTI2IDMuNTI2IDAgMCAwLTEuNjU3Ljc5NiA1LjI3NSA1LjI3NSAwIDAgMC0xLjA0MyAxLjIyIDguNiA4LjYgMCAwIDAtMS4wMyAyLjQxNyA5LjkxNyA5LjkxNyAwIDAgMC0uMzEzIDEuNzljLS4wMjQuMjE4LS4wMjQuMzktLjAyOC41MDctLjAwNC4xMTcgMCAuMTggMCAuMThsLjMzMi0uNTk4Yy4yMTEtLjM3NS41MDQtLjkwNi44NjQtMS41MjMuMzY3LS42MS44MDQtMS4zMSAxLjMzMi0xLjk0Mi4yNjUtLjMxNi41NTgtLjYxLjg2Ny0uODM2LjMwOC0uMjE5LjYyNS0uMzc1Ljk0MS0uNDIyLjA3OC0uMDExLjE2LS4wMjMuMjM5LS4wMy4wODIuMDEuMTYgMCAuMjQyLjAxOS4wODYuMDIuMTY4LjAxNS4yNTQuMDQzbC4yMDMuMDU0LjA2Mi4wMzItLjAwOC0uMDA4aC4wMTJjMCAuMDA0LjAwNC4wMDguMDA4LjAxMWwuMDA0LjAwNC4wMjMuMDA4aC0uMDExYy0uMDA0IDAtLjAwOCAwLS4wMTItLjAwNC4wMTIuMDA4LjAyLjAyLjAyNy4wNDMuMDQzLjA3NC4wNzguMjMuMDkuMzk5LjAxNi4zODItLjAxNi43NjEtLjA5IDEuMTM2LS4wNTguMzc1LS4xMzYuNzM5LS4yMjYgMS4xMDYtLjE2LjY5NS0uMzIgMS4yODUtLjQyMiAxLjcwMy0uMTEuNDE4LS4xNjguNjYtLjE2OC42NnMuMTgzLS4xNzYuNDU3LS41MTZjLjM3NS0uNDc2LjcxNS0uOTggMS4wMDgtMS41MDdhOC4zNiA4LjM2IDAgMCAwIC41MjMtMS4xMjFjLjE2LS40MTguMzA5LS44OC4zNTYtMS40MzhhMi41MDMgMi41MDMgMCAwIDAtLjExOC0uOTYgMS40MDcgMS40MDcgMCAwIDAtLjExNy0uMjc0Wm0wIDAiIGZpbGw9IiMwMDAiLz4mI3hhOyAgICA8cGF0aCBkPSJtODMuNzUgMjUuODE2LS4wMTItLjAwMy4wMTIuMDExaC4wMDRsLS4wMDQtLjAwNFptMCAwIiBmaWxsPSIjMDAwIi8+JiN4YTsgICAgPHBhdGggZD0iTTE5LjY0OCA0NS4xMjloLjE0NWMtLjA1LS4wODYtLjA5OC0uMTc2LS4xNDUtLjI2MlptMS4yOS00LjA3NGMuMjUuNDk2LjU0Ni45NjguODkgMS40MDYuMTIxLjE2LjIyNy4yNzMuMy4zNTUuMDY3LjA4Mi4xMS4xMjEuMTEuMTIxcy0uMDQzLS4yMjYtLjEyLS42MDljLS4wNzEtLjM4Ny0uMTkyLS45MjYtLjI5NC0xLjU1OGExMS4zMSAxMS4zMSAwIDAgMS0uMTItMWMtLjAxNy0uMzM2LS4wMTctLjcuMDU0LS45NjFhLjczMS43MzEgMCAwIDEgLjEzNy0uMjkuMzQyLjM0MiAwIDAgMSAuMTQ4LS4wODFsLjA0Ny0uMDEyLjA4Mi0uMDE2Yy4wMjMtLjAwNC0uMDA4LjAxNi0uMDEyLjAxNi0uMDA0LjAwNC0uMDE1LjAwNC0uMDIzLjAwNGgtLjAxNmwuMDA4LjAwNGMuMDIuMDA3LjAzMS4wMDcuMDQ3LjAxMS4wNzguMDI4LjE5NS4wOTQuMzIuMTg0LjI2Mi4xODcuNTMxLjQ4Ljc5Ljc3My4yNTcuMzA5LjUwMy42MjEuNzM3Ljk0Mi40NzMuNjQuOTEgMS4yNjEgMS4yOTMgMS43OTcuMzEzLjQzNy42My44NzUuOTU3IDEuMy4xMjIuMTY0LjI1NC4zMjkuMzg3LjQ4OWwtLjAyLS4xNjRjLS4wMTUtLjEwMi0uMDM1LS4yNjItLjA3NC0uNDU3YTExLjgzNSAxMS44MzUgMCAwIDAtLjQxNC0xLjU4NiAxMy40MTIgMTMuNDEyIDAgMCAwLS45MTQtMi4xNDEgOC45NTMgOC45NTMgMCAwIDAtLjcyMi0xLjE0NSA1LjMwMyA1LjMwMyAwIDAgMC0xLjA1NS0xLjA5NyAyLjkxOCAyLjkxOCAwIDAgMC0uODQ0LS40M2MtLjA5NC0uMDItLjE4My0uMDM5LS4yNzctLjA1bC0uMDc0LS4wMTJoLS4wOTRjLS4wNjcgMC0uMTI1LjAwNC0uMTkyLjAwNy0uMDU0LjAwOC0uMTQ0LjAxNi0uMTcxLjAyNGwtLjA3OS4wMi0uMDc4LjAyMy0uMTA1LjAzMS0uMDMxLjAxMi0uMDU5LjAyN2ExLjc3MyAxLjc3MyAwIDAgMC0uODI0LjcwNyAyLjA4MiAyLjA4MiAwIDAgMC0uMjkuODk1Yy0uMDUuNTUuMDYuOTk2LjE2OSAxLjM5OC4xMTMuMzY3LjI1NC43MjMuNDI1IDEuMDYzWm0wIDAiIGZpbGw9IiMyMzFmMjAiLz4mI3hhOyAgICA8cGF0aCBkPSJNMjUuODA1IDEwNS41NzRjMi40NzIgMCA0LjIxLTEuMzQgNS40MzctMy4wNzhhMzYyLjM5IDM2Mi4zOSAwIDAgMS01Ljg4My0xNC4zOTRjLS41OTMuNS0xLjI3MyAxLjI1My0yLjAxNSAyLjM5LTEuODM2IDIuODQtMy4zNTIgOS40MzgtMS40NDYgMTIuOTI2Ljc5NyAxLjQ1IDIuMDc1IDIuMTU2IDMuOTA3IDIuMTU2Wm04Ny4zMDgtMTYuMzU1Yy0xLjQ1My0zLjczLTQuNTM1LTYuMzgzLTcuNS02LjQ0NmwtLjEwMS0uMDExYy0uMDA4IDAtLjU3OC0uMDgyLTEuMzQ0LS4wODItMS42MTMgMC0zLjU5NC4zNC0zLjg2NyAxLjk3Ni0uMTkyIDEuMTMzLjMwNCAxLjcxMSAxLjM2IDIuODE3IDEuMjAyIDEuMjYxIDIuODUgMi45ODQgMy4zNDcgNi41OTMuNTY2IDQuMTI1IDEuNTc4IDYuMjIzIDMuMDEyIDYuMjIzLjY2OCAwIDEuODgyLS4zOTggMy44OTgtMi4zIDIuNDgtMi4zNCAyLjI0Mi02LjA2MyAxLjE5NS04Ljc3Wm0wIDAiIGZpbGw9IiNkZmNhYTMiLz4mI3hhOyAgICA8cGF0aCBkPSJNNDEuMjQ2IDcxLjcwM2EzLjMyIDMuMzIgMCAwIDEtMy4zMjQgMy4zMTMgMy4zMiAzLjMyIDAgMCAxLTMuMzI4LTMuMzEzIDMuMzIgMy4zMiAwIDAgMSAzLjMyOC0zLjMxMiAzLjI5NyAzLjI5NyAwIDAgMSAyLjM0OC45NjhjLjYyNS42MjEuOTc2IDEuNDY1Ljk3NiAyLjM0NFptMzIuMjE1LTcuNzYyYTMuMzE0IDMuMzE0IDAgMCAxLTMuMzI0IDMuMzEzIDMuMzE4IDMuMzE4IDAgMCAxLTMuMzI4LTMuMzEzYzAtMS44MjggMS40OTItMy4zMDggMy4zMjgtMy4zMDhhMy4zMTYgMy4zMTYgMCAwIDEgMy4zMjQgMy4zMDhabTAgMCIgZmlsbD0iIzIzMWYyMCIvPiYjeGE7ICAgIDxwYXRoIGQ9Ik0yOC44OTUgMzQuNzA3YzIuNTk3LjY5NSA1LjUzIDEuMDQ3IDguNzI2IDEuMDQ3IDUuMTI5IDAgMTYuMDItLjk4OCAzMS4zMjgtNy42MzNsLjM0NC0uMTUyYTkuMDQ5IDkuMDQ5IDAgMCAxIC4yMS0yLjUxMmMuMzM3LTEuNTM1IDEuMDEzLTIuODQgMS44MzctMy43MDMtLjE1Ni0uNTktLjI5LTEuMDItLjM4My0xLjIzOC0xLjc2Ni0uOTM4LTE2LjMyNC02LjMzNi0yMy45MjItNi4zMzYtLjc2MiAwLTEuNDIyLjA1NC0xLjk2OS4xNjQtNi43MyAxLjM3LTE2Ljk2IDEzLjAyMy0xNy4zMjQgMTQuNjcyLS4xMS43MTQtLjA3OCAyLjk1Ny4wMDQgNS4zODJabS0uMTMgMTYuNTQzYTUuNDEgNS40MSAwIDAgMC0uNjYtLjExIDIuODIyIDIuODIyIDAgMCAxLTIuOTQ1LTIuMzA0IDIuNjcgMi42NyAwIDAgMS0uMDQzLS40MyAzMC4xNCAzMC4xNCAwIDAgMC0yLjI0MiAxLjM5bC0xLjI3Ljg3Ni0uOTM3LTEuMjI3YTMyLjU4IDMyLjU4IDAgMCAxLTIuNzg1LTQuNDE4Yy0yLjI1IDEuMDU5LTQuMDEyIDIuMjE1LTQuNDQyIDMuMzEzLS4wODIuMjA3LS4wNDYuMzIuMDM2LjQ0MS4zNjcuNTM1IDIuNTUgMi4xNzIgMTUuMjg5IDIuNDY5Wm0yNi40NTQtMy41OWEyLjg0IDIuODQgMCAwIDEgMy40NjguMzMyYy4xNDEtLjAyMy4zODMtLjA4Mi43MzUtLjI0MiAxLjM5OC0uNjYgNi40MjYtNi4wMDggMTAuMjUtMTAuNTg2LjEzNy0uMTYuMjg1LS4zMDUuNDU3LS40MzQtOC43MzQgMy43NTgtMjAuOTM4IDcuODY0LTMyLjU1OSA3Ljg2NC0xLjg2NyAwLTMuNjQtLjEwNi01LjI4OS0uMzJsLjI1OC43NDYtMS40NTMuNTU0YTMzLjkxIDMzLjkxIDAgMCAwLS42OC4yNzRjMS44NzEuNDMzIDQuNDAzIDEuMjg5IDcuNTc4IDIuNTcgNS44MDkgMi4zMzIgOC4wMzIgMi40MjIgOC41ODYgMi4zOWEyLjg1IDIuODUgMCAwIDEgMi41NjMtLjAzNSA4OC45NTUgODguOTU1IDAgMCAwIDMuMzgzLS4yNjFjLjMyLS4wMzUuNzk3LS4xMzMgMS4zOTgtLjI5YTIuODAyIDIuODAyIDAgMCAxIDEuMzA1LTIuNTYyWk04OS4wNSAzMC40NzNjLS40MjIgMi41MTEtMS4yMzkgNS4yNy0xLjc3NCA2LjAybC0uNTA3LjcwMmExMTguMTE2IDExOC4xMTYgMCAwIDAgNi4wNy0zLjEzM2M2LjAzNS0zLjM2NyA2Ljc4OS00Ljg0IDYuODc1LTUuMjE0LjA1NS0uMjQ2LS4wMDQtLjMyLS4wMzEtLjM1Mi0uMDY3LS4wODItLjQ5My0uNDkyLTIuMzk5LS40OTItMi4wODIgMC00Ljk5Ni40NzYtOC4wMzkgMS4xMzMtLjA1NS40NDktLjEyMS44OTQtLjE5NSAxLjMzNlptLTIuMzUyIDYuNzU3LS44Ny0uMDY2YTQ4Ljg0NCA0OC44NDQgMCAwIDAtMy43ODItLjEzM2MtMi4yNSAwLTUuMjE5LjEzNy03LjY1Mi43MTEuNDguOTkyLjMzNSAyLjE3Mi0uMzcyIDMuMDJhMTU5LjUxMyAxNTkuNTEzIDAgMCAxLTIuODEyIDMuMjc3YzIuMi0uODkgNC4zOS0xLjgwNSA2LjU2Ni0yLjc0NmEyMTguMTMgMjE4LjEzIDAgMCAwIDguOTE4LTQuMDYzWm0wIDAiIGZpbGw9IiM2NDhjMWEiLz4mI3hhOyAgICA8cGF0aCBkPSJNNjkuNTk0IDI5LjU5NGMtNi4xMTcgMi42NTYtMTkuNTIgNy43NzMtMzEuOTczIDcuNzczLTMuMTU2IDAtNi4yNDYtLjMyOC05LjE0NC0xLjExLjMxNi40NzcuNjE3Ljk2Ni44OTggMS40NjIgMS4wNzggMS44ODMgMS44NjMgMy43NDYgMi4yOTMgNC44NDMgMS41MDguMjM1IDMuNDczLjQyMiA1LjkwMi40MjIgNy4xNTMgMCAxOC4zMzYtMS42MjkgMzMuNjgtOC41MDQuMjkzLS45MjUuNjEzLTEuODQuOTU3LTIuNzQ2LS4wMzEgMC0uMDYyLjAwOC0uMDk0LjAwOC0uMTYgMC0uMzI0LS4wMi0uNDgtLjA1NS0uOTUzLS4yMDctMS42Ni0uOTgtMi4wNC0yLjA5M1ptMCAwIiBmaWxsPSIjZGZjYWEzIi8+JiN4YTsgICAgPHBhdGggZD0iTTE5Ljc5MyA0NS4xMjlhMzIuMTI3IDMyLjEyNyAwIDAgMCAyLjE2NCAzLjM0NGMzLjcwMy0yLjU1NSA4LjU1LTQuMzk5IDguNTUtNC4zOTlzLS4xMjQtLjM2My0uMzU5LS45NmMtLjE0LS4zNi0uMjg5LS43Mi0uNDQxLTEuMDc1YTMyLjQ4MyAzMi40ODMgMCAwIDAtMS4zOS0yLjg5OCAyMy41OTcgMjMuNTk3IDAgMCAwLTEuMjQzLTIuMDdjLTEuNDg0LTIuMjIzLTMuMzctNC4xMTQtNS40ODQtNC4xMTQtLjY2NCAwLTEuMzU2LjE4OC0yLjA1OS42MTMtMy44NzkgMi4zMzYtMS44NzUgNy42ODQuMTE3IDExLjI5Ny4wNDcuMDkuMDk4LjE3Ni4xNDUuMjYyWm0uNTUtNi41MzVjLjAyOC0uMjc4LjEwMi0uNTg2LjI5LS44OTUuMTkxLS4zMTYuNDgtLjU2Mi44MjQtLjcwN2wuMDU5LS4wMjcuMDI3LS4wMTIuMTEtLjAzMS4wNzctLjAyNC4wNzktLjAyYy4wMjctLjAwNy4xMTctLjAxNS4xNzEtLjAyMy4wNjctLjAwMy4xMjUtLjAwNy4xOTItLjAwN2guMDk0bC4wNzQuMDExYy4wOS4wMTIuMTg3LjAzMi4yNzcuMDUxLjM0NC4xMDYuNjEuMjY2Ljg0NC40My40NS4zNDQuNzcuNzE1IDEuMDU1IDEuMDk3LjI4NS4zNzYuNTE1Ljc2Ni43MjIgMS4xNDUuMzY3LjY4OC42NzIgMS40MDIuOTE0IDIuMTQuMTc2LjUyLjMxMyAxLjA1MS40MTQgMS41OS4wNC4xOTIuMDU5LjM1Mi4wNzUuNDU0bC4wMi4xNjRzLS4xNS0uMTc2LS4zODgtLjQ4OWE0MC4yODIgNDAuMjgyIDAgMCAxLS45NTctMS4zYy0uMzgyLS41MzYtLjgyLTEuMTU3LTEuMjkzLTEuNzk3LS4yMzQtLjMyLS40OC0uNjMzLS43MzgtLjk0Mi0uMjU4LS4yOTMtLjUyNy0uNTg2LS43ODktLjc3YTEuMzI0IDEuMzI0IDAgMCAwLS4zMi0uMTg3Yy0uMDItLjAwNC0uMDI4LS4wMDQtLjA0My0uMDExbC0uMDA4LS4wMDRoLjAwOGMuMDEyIDAgLjAyMyAwIC4wMjctLjAwNC4wMDQgMCAuMDM1LS4wMi4wMTItLjAxNmwtLjA4Mi4wMi0uMDQ3LjAwOGEuMzI1LjMyNSAwIDAgMC0uMTQ4LjA4Mi43MzEuNzMxIDAgMCAwLS4xMzcuMjg5Yy0uMDcuMjYxLS4wNy42MjUtLjA1NS45Ni4wMjQuMzQ0LjA3LjY4NC4xMjEuOTk3LjEwMi42MzIuMjIzIDEuMTc1LjI5MyAxLjU2Mi4wNzguMzgzLjEyMS42MS4xMjEuNjFzLS4wNDMtLjA0LS4xMS0uMTIyYy0uMDczLS4wODItLjE3OS0uMTk1LS4zLS4zNTVhOC4zNzUgOC4zNzUgMCAwIDEtLjg5LTEuNDA2IDYuNDAyIDYuNDAyIDAgMCAxLS40MjItMS4wNjNjLS4xMTQtLjQwMi0uMjIzLS44NDctLjE3Mi0xLjM5OFptMS4yNDctNi40NDJ2LjgwNVptMCAwIiBmaWxsPSIjNjdjZmUzIi8+JiN4YTsgICAgPHBhdGggZD0iTTczLjU3NCAyMC42MzdjLjE2NCAwIC4zMjQuMDIuNDg1LjA1IDEuMTg3LjI2NiAxLjk4OCAxLjM5OSAyLjI1NyAyLjk3NyAyLjI1OC0zLjE2IDQuNzMtNC43NjIgNy4zNjQtNC43NjIgMS4xMSAwIDIuMDg2LjI2MiAyLjkwMi43NjYuNzczLS45MzQgMS41MzUtMS44ODMgMi4yNzctMi44NDQtMS4wNDYuMTg4LTMuMjMuNDczLTMuMjMuNDczQzkzLjg5NSAxNC4yNyA5My4yMyA2LjAzNSA5My4yMyA2LjAzNWMwIDEuNDIyLTQuMjc3IDQuODI4LTQuMjc3IDQuODI4LjE5Mi0xLjIzLS40NzMtMi44NC0uNDczLTIuODQuMTg4IDEuNjEtNC45NCA1Ljc3NC00Ljk0IDUuNzc0LjM3OC0uNzU4LjA4OS0yLjA4Mi4wODktMi4wODItLjI4NSAxLjUxMi0yLjU2MyAyLjA4Mi0yLjU2MyAyLjA4MiAxLjQyMi0xLjcwMyA0LjA4Ni0xMC42OTIgMi4wOS0xMS4yNjItMS45OTYtLjU2Ni00Ljc1NCA1Ljg2My00Ljc1NCA1Ljg2My0uMDkzLTEuNTExLS45NDktMS41MTEtLjk0OS0xLjUxMS4zODMgNC43My0zLjQxOCA4LjUxNS0zLjQxOCA4LjUxNS0uMjg1LS45NDUtMS44MDgtMS40MjItMS44MDgtMS40MjIuNDkyIDEuMDU1LS4wNjcgNS44NTItLjIzOSA3LjIwNy41MDQtLjM1MSAxLjA0My0uNTUgMS41ODYtLjU1Wm0wIDAiIGZpbGw9IiNkZmNhYTMiLz4mI3hhOyAgICA8cGF0aCBkPSJNNzEuNTQ3IDI5Ljg0NHYuMDA0Yy4wNDMuMDQ3LjA4Ni4wODYuMTI5LjEyLjAxNS4wMTIuMDMxLjAyLjA0Ny4wMzIuMDMuMDIuMDYyLjA0My4wOTcuMDU5YS42NDEuNjQxIDAgMCAwIC4xNi4wNTguODY0Ljg2NCAwIDAgMCAuMjY2LjAwNGMuMjQ2LS4wMzkuNTItLjE5MS43OTctLjQ0NWE0Mi41MSA0Mi41MSAwIDAgMSAuODA1LTEuNzc0Yy4yNTctLjUyNy41MjMtMS4wNS44MDgtMS41NjYuNDA2LTIuMTQtLjE0NC0zLjg5OC0uOTQ1LTQuMDc0YS41MjUuNTI1IDAgMCAwLS4xMzctLjAxMmMtLjgyNCAwLTIuMDIzIDEuNDI2LTIuNDkyIDMuNTU1LS4zNCAxLjU0My0uMTg0IDIuOTE0LjIxOSAzLjY4bC4wMDQuMDAzYy4wNy4xNC4xNDguMjYyLjIzOC4zNTZabTAgMCIgZmlsbD0iIzAwMCIvPiYjeGE7ICAgIDxwYXRoIGQ9Ik04My43NDIgMjUuODA1aC0uMDEybC4wMDguMDA4LjAxMi4wMDNjLS4wMDQtLjAwMy0uMDA0LS4wMDctLjAwOC0uMDExWm0uMDM1LjAyMy0uMDIzLS4wMDgtLjAwNC0uMDA0di4wMDRsLjAwNC4wMDRjLjAwNC4wMDQuMDA4LjAwNC4wMTIuMDA0Wm0wIDAiIGZpbGw9IiM2N2NmZTMiLz4mI3hhOyAgICA8cGF0aCBkPSJNODMuNjggMjAuNTEyYy00LjcwNyAwLTguMTY4IDcuMDU0LTkuOTggMTEuODQ3YTU2LjY5IDU2LjY5IDAgMCAwLS44ODQgMi41MjRjLS4xNC40MzctLjI3My44NzktLjQwMiAxLjMyLjIyNy4wNDMuNDUuMTI1LjY2LjIyNyAyLjc0Mi0uODE3IDYuMjk3LTEuMDA0IDguOTczLTEuMDA0IDIuMjcgMCAzLjkxLjEzMyAzLjkxLjEzMy43MTUtLjk5NiA0Ljg1Mi0xNS4wNDctMi4yNzctMTUuMDQ3Wm0xLjYyOSA1Ljc3N2E1LjA2MyA1LjA2MyAwIDAgMS0uMzU2IDEuNDM4IDguMzYgOC4zNiAwIDAgMS0uNTIzIDEuMTIgMTEuNzg1IDExLjc4NSAwIDAgMS0xLjAwOCAxLjUwOGMtLjI3NC4zNC0uNDU3LjUxNi0uNDU3LjUxNnMuMDU4LS4yNDIuMTY4LS42NmMuMTAxLS40MTguMjYyLTEuMDA4LjQyMi0xLjcwMy4wODItLjM0NC4xNjgtLjcxOS4yMjYtMS4xMDYuMDc0LS4zNzUuMTA2LS43NTQuMDktMS4xMzYtLjAxMi0uMTY4LS4wNDctLjMyNS0uMDktLjM5OS0uMDA4LS4wMjMtLjAxNS0uMDM1LS4wMjctLjA0M2gtLjAwNGE2NC43NCA2NC43NCAwIDAgMC0uMDEyLS4wMTJsLS4wNjItLjAzLS4yMDMtLjA1NWMtLjA4Ni0uMDI4LS4xNjgtLjAyNC0uMjU0LS4wNDMtLjA4Mi0uMDItLjE2LS4wMDgtLjI0Mi0uMDJhNS41OCA1LjU4IDAgMCAxLS4yMzkuMDI3Yy0uMzE2LjA1MS0uNjMzLjIwNy0uOTQxLjQyNmE1LjMyIDUuMzIgMCAwIDAtLjg2Ny44MzZjLS41MjguNjMzLS45NjUgMS4zMzItMS4zMjggMS45NDItLjM2NC42MTctLjY1NyAxLjE0OC0uODY4IDEuNTIzbC0uMzMyLjU5OHMtLjAwNC0uMDYzIDAtLjE4Yy4wMDQtLjExNy4wMDQtLjI5LjAyOC0uNTA4LjA1LS42MDUuMTUyLTEuMjAzLjMxMi0xLjc4OS4xOTUtLjczLjUtMS41NzQgMS4wMzEtMi40MjJhNS40MzcgNS40MzcgMCAwIDEgMS4wNDMtMS4yMTUgMy41MjYgMy41MjYgMCAwIDEgMS42NTctLjc5N2MuMTYtLjAyMy4zMjQtLjAzNS40ODQtLjAzOS4xNjQuMDA4LjMyOC4wMDguNDg0LjAzNi4xNTMuMDMuMzEzLjA1LjQ1Ny4xMDFsLjIxNS4wNzQuMTA2LjAzNS4wMTUuMDA4aC4wMDhsLjA3NC4wMzUuMDIuMDEyLjAzOS4wMmMuMDMxLjAwNC40MTguMjQyLjUxNi4zOThsLjEwMS4xMzMuMDgyLjEzN2ExLjIgMS4yIDAgMCAxIC4xMTcuMjczYy4xMjEuMzYuMTMzLjY3Ni4xMTguOTYxWm0wIDAiIGZpbGw9IiM2N2NmZTMiLz4mI3hhOyAgICA8cGF0aCBkPSJNNTguNTI3IDUxLjk0MWMuNzc0IDAgMS42MTgtLjIwNyAyLjUxNi0uNjA1IDEuODc5LS44NDQgNi40NTMtNS40MTggMTEuNjY0LTExLjY2LjI3Ny0uMzMyLjMzNi0uNzkzLjE1Mi0xLjE4OGExLjExNCAxLjExNCAwIDAgMC0xLjAxMS0uNjM2IDEuMTE3IDEuMTE3IDAgMCAwLS44NjQuMzk4Yy0yLjI2MSAyLjcxOS04LjYzMiAxMC0xMC44MjQgMTEuMDM1bC0uMDMxLjAyYTQuNzggNC43OCAwIDAgMS0xLjE3Ni4zNjdsLS44MzYuMTMzLS42MS0uNTgyYTEuMTUgMS4xNSAwIDAgMC0uNzczLS4zMDFjLS4yMTQgMC0uNDIyLjA2Mi0uNTk3LjE3NmExLjExIDEuMTEgMCAwIDAtLjM0NCAxLjUzNWMuMDg2LjEzMy44OSAxLjMwOCAyLjczNCAxLjMwOFptLTEwLjYyOS4yNDZjLS4xOCAwLS4zNjMuMDQzLS41MjMuMTI2bC0uMzMyLjE3MS0uMzY3LjAyOGMtLjA5LjAwNC0uMTguMDA0LS4yNy4wMDQtMS4wNDMgMC0zLjYxLS4zMjUtOS4wNjYtMi41Mi02LjAxNi0yLjQxOC04LjQwMy0yLjc4MS05LjI4NS0yLjc4MWExLjY2IDEuNjYgMCAwIDAtLjMxMy4wMiAxLjEwNCAxLjEwNCAwIDAgMC0uOTAyIDEuMjkzIDEuMTMgMS4xMyAwIDAgMCAxLjA5NC45MTdjLjAyMyAwIC4wNDYgMCAuMDctLjAwNGwuMTI1LS4wMDcuMTIxLjAxMWMuNjY0LjA1NSAyLjc5My40MjIgOC4yNTQgMi42MTQgNC40MTQgMS43NzcgNy43NTQgMi42NzUgOS45MyAyLjY3NSAxLjE0NCAwIDEuOTI1LS4yNDYgMi4zMjQtLjcyMmExLjExNCAxLjExNCAwIDAgMC0uMTQ1LTEuNTcgMS4wODMgMS4wODMgMCAwIDAtLjcxNS0uMjU1Wm0wIDAiIGZpbGw9IiMwMDAiLz4mI3hhOyAgICA8cGF0aCBkPSJNNjMuMDA4IDc1LjM2cy0uMzEzIDMuNjcxLTUuNTA4IDQuNDM3Yy0uOTg0LjE0LTEuODI4LjIwNy0yLjU1NS4yMDctMi43NjEgMC0zLjg1MS0uOTA2LTQuNDkyLTEuNjk1IDAgMC00Ljk3NiAxLjY3MS01LjM1NSA0LjUxNS0uMjg1IDIuMTIxIDEuNzcgMy4yMTEgMy41NzggMy4yMTEuNjEgMCAxLjE5MS0uMTI1IDEuNjQ4LS4zNzUgMS44MDktLjk5MiA0LjUxMi0zLjE2OCA4LjEyNS0zLjY0NC4zMjgtLjA0Ljc3OC0uMDU1IDEuMzEzLS4wNTUgMS4yMzQgMCAyLjkyMi4wODIgNC41NTQuMDgyIDEuODU2IDAgMy42NDUtLjEwNiA0LjYzNy0uNTQ3IDIuMjMtLjk5MiAyLjIzLTIuNjk1IDIuMDktMy41NDctLjE2LS45NDEtMi40My0yLjU0My04LjAzNS0yLjU5Wm0wIDAiIGZpbGw9IiNkZmNhYTMiLz4mI3hhOyAgICA8cGF0aCBkPSJtNTYuOTU3IDc4LjM4My4xODQtLjAzMS4yMDMtLjA0M2MyLjcwMy0uNTUxIDQuNjkxLTIuMTA2IDQuNzEtMy42NmExLjg2IDEuODYgMCAwIDAtLjIyMi0uOTAzYy0uNy0xLjI5My0yLjk0NS0yLjAwOC01LjUwNC0xLjY5MWwtLjQxNC4wNThjLTMuMDkuNTEyLTUuMzYzIDIuMzI4LTUuMDc0IDQuMDU5LjAyLjEwMS4wNDMuMi4wNzguMjkzLjUzMSAxLjU1IDMuMTI5IDIuNDAyIDYuMDM5IDEuOTE4Wm0wIDAiIGZpbGw9IiMyMzFmMjAiLz4mI3hhOzwvc3ZnPg==;" parent="1" vertex="1">
                    <mxGeometry x="1170" y="4" width="110" height="110" as="geometry"/>
                </mxCell>
                <mxCell id="PG-S5D8SCmHSsYNVxMVk-165" value="&lt;b&gt;ApiGateway&lt;/b&gt;" style="text;strokeColor=none;fillColor=none;html=1;align=center;verticalAlign=middle;whiteSpace=wrap;rounded=0;fontSize=18;fontFamily=Comic Sans MS;" parent="1" vertex="1">
                    <mxGeometry x="1451.25" y="-950" width="70" height="30" as="geometry"/>
                </mxCell>
                <mxCell id="PG-S5D8SCmHSsYNVxMVk-175" style="edgeStyle=orthogonalEdgeStyle;shape=connector;curved=0;rounded=1;orthogonalLoop=1;jettySize=auto;html=1;shadow=0;dashed=1;dashPattern=8 8;strokeColor=#23445d;align=center;verticalAlign=middle;fontFamily=Helvetica;fontSize=12;fontColor=default;labelBackgroundColor=default;elbow=vertical;startSize=8;endArrow=open;endFill=0;endSize=8;flowAnimation=0;fillColor=#bac8d3;" parent="1" source="PG-S5D8SCmHSsYNVxMVk-168" target="PG-S5D8SCmHSsYNVxMVk-163" edge="1">
                    <mxGeometry relative="1" as="geometry">
                        <Array as="points">
                            <mxPoint x="1360" y="-103"/>
                            <mxPoint x="1360" y="-103"/>
                        </Array>
                    </mxGeometry>
                </mxCell>
                <mxCell id="PG-S5D8SCmHSsYNVxMVk-168" value="" style="shape=image;imageAspect=0;aspect=fixed;verticalLabelPosition=bottom;verticalAlign=top;fontFamily=Helvetica;fontSize=12;fontColor=default;labelBackgroundColor=default;image=data:image/svg+xml,PHN2ZyB4bWxucz0iaHR0cDovL3d3dy53My5vcmcvMjAwMC9zdmciIHZpZXdCb3g9IjAgMCAxMjggMTI4Ij48cGF0aCBmaWxsPSIjZTc1MjI1IiBkPSJNNjMuNjYgMi40NzdjMzMuNDc3LjAwNyA2MC45NTcgMjcuMjk2IDYwLjkxNCA2MC41LS4wNDMgMzMuNzAzLTI3LjQxIDYwLjYxNy02MS42MTMgNjAuNTkzLTMzLjQ0MS0uMDIzLTYwLjQ3Ny0yNy4zNDMtNjAuNDUzLTYxLjA4NkMyLjUzIDI5LjQ4OCAzMC4wNjYgMi40NyA2My42NiAyLjQ3N3ptLTE4LjUwNCAyMS4yNWMuNzY2IDMuNzc3LjAyNCA3LjMtMS4xMTMgMTAuNzY1LS43ODUgMi4zOTktMS44NzEgNC43MTEtMi41MiA3LjE0NS0xLjA3IDQuMDA4LTIuMjggOC4wMzktMi43MjYgMTIuMTM2LS42NCA1Ljg5NSAxLjY3NiAxMS4wODYgNS42NCAxNi4yNWwtMTguMjIyLTMuODM1Yy4wMzEuNTc0IDAgLjc5Mi4wNjIuOTc2IDEuNzI3IDUuMDc0IDQuNzY2IDkuMzQ4IDguMTcyIDEzLjM3OS4zNi40MjYgMS4xOC42NDQgMS43OS42NDQgMTguMTY3LjAzNiAzNi4zMzUuMDMyIDU0LjUwMy4wMDguNTYzIDAgMS4zMTctLjEwNSAxLjY2LS40NjggMy44OTUtNC4wOTQgNi44NzEtOC43NTggOC43MzUtMTQuNjNsLTE5LjI5IDMuNzc4YzEuMjc0LTIuNDk2IDIuNzIzLTQuNjg4IDMuNTYtNy4wOTggMi44NTUtOC4yNDIgMS42NzEtMTYuMjEtMi40MjctMjMuNzI2LTMuMjg5LTYuMDMxLTYuMzI0LTEyLjAzNS00LjY4My0xOS4zMDUtMy40NzMgMy40MzQtNC44MDkgNy44LTUuNjU2IDEyLjMtLjgzMiA0LjQzNC0xLjMyNSA4LjkzLTEuOTcgMTMuNDMtLjA5My0uMTM2LS4yMS0uMjM4LS4yMy0uMzU1YTEzLjMxNyAxMy4zMTcgMCAwMS0uMTY4LTEuNDIyYy0uMzk0LTcuMzY3LTEuODMyLTE0LjQ2NS00Ljg3LTIxLjI0Ni0xLjc4Ni0zLjk4OC0zLjc1OC04LjA3LTEuOTE1LTEyLjgzMi0xLjI0Ni42Ni0yLjM3NSAxLjMxMy0zLjE4MyAyLjI0Ni0yLjQxIDIuNzg1LTMuNDA3IDYuMTMtMy42NjQgOS43OTMtLjIyIDMuMTMtLjUyIDYuMjc0LTEuMTAyIDkuMzUyLS42MSAzLjIzNC0xLjU3NCA2LjQwMi0zLjc1IDkuMzc1LS44NzUtNi4zNDgtLjk3My0xMi42My02LjYzMy0xNi42NnpNOTIgODYuNzVIMzUuMDE2djkuODk4SDkyem0tNDUuNjg0IDE1LjAxNmMtLjA0NiA4LjI0MiA4LjM0OCAxNC4zODIgMTguNzIzIDEzLjkzNyA4LjYwMi0uMzcxIDE2LjIxMS03LjEzNyAxNS41NTktMTMuOTM3em0wIDAiLz48L3N2Zz4=;" parent="1" vertex="1">
                    <mxGeometry x="1180" y="-140" width="80" height="80" as="geometry"/>
                </mxCell>
                <mxCell id="PG-S5D8SCmHSsYNVxMVk-180" style="edgeStyle=orthogonalEdgeStyle;shape=connector;curved=0;rounded=1;orthogonalLoop=1;jettySize=auto;html=1;entryX=0;entryY=0.75;entryDx=0;entryDy=0;shadow=0;dashed=1;dashPattern=8 8;strokeColor=#23445d;align=center;verticalAlign=middle;fontFamily=Helvetica;fontSize=12;fontColor=default;labelBackgroundColor=default;elbow=vertical;startSize=8;endArrow=open;endFill=0;endSize=8;flowAnimation=0;fillColor=#bac8d3;exitX=0.5;exitY=0;exitDx=0;exitDy=0;" parent="1" source="PG-S5D8SCmHSsYNVxMVk-170" target="PG-S5D8SCmHSsYNVxMVk-163" edge="1">
                    <mxGeometry relative="1" as="geometry">
                        <Array as="points">
                            <mxPoint x="1402" y="-92"/>
                        </Array>
                    </mxGeometry>
                </mxCell>
                <mxCell id="PG-S5D8SCmHSsYNVxMVk-170" value="" style="shape=image;imageAspect=0;aspect=fixed;verticalLabelPosition=bottom;verticalAlign=top;fontFamily=Helvetica;fontSize=12;fontColor=default;labelBackgroundColor=default;image=data:image/svg+xml,PHN2ZyB4bWxucz0iaHR0cDovL3d3dy53My5vcmcvMjAwMC9zdmciIHdpZHRoPSIyMDAiIHZpZXdCb3g9IjAgMCAyMDAgMjAwIiBoZWlnaHQ9IjIwMCI+PHBhdGggZmlsbD0iI2ZlNzEzOSIgZD0ibTEwMC45MTc5NjkgMTEuMTY3OTY5YzIuMzAwNzgxIDMuMzc4OTA2IDQuMzcxMDkzIDYuOTE3OTY5IDYuNSAxMC40MTAxNTYgMi40MDIzNDMgNC4wNzAzMTMgNS4xMzI4MTIgNy44Mzk4NDQgNy4zNzEwOTMgMTEuOTk2MDk0IDIuMjMwNDY5IDQuMTg3NSA0LjkxNzk2OSA3Ljk2MDkzNyA3LjM2NzE4OCAxMi4wMTU2MjUgMi42Njc5NjkgNC42MDE1NjIgNS43MDcwMzEgOC45NzY1NjIgOC4yNDIxODggMTMuNjQ0NTMxIDQuMDI3MzQzIDYuNzY5NTMxIDguMzYzMjgxIDEzLjMzOTg0NCAxMi40MDIzNDMgMjAuMTAxNTYzIDIuNDI5Njg4IDQuNTUwNzgxIDUuNDI1NzgxIDguNzYxNzE4IDguMDExNzE5IDEzLjIyMjY1NiAyLjQ5MjE4OCA0LjM2MzI4MSA1LjUxMTcxOSA4LjM1MTU2MiA3Ljc4OTA2MiAxMi44Mzk4NDQgNC42NzE4NzYgNy44MDA3ODEgOS42ODc1IDE1LjM5NDUzMSAxNC4yNjU2MjYgMjMuMjYxNzE4IDQuNDU3MDMxIDcuNjQ0NTMyIDkuMzYzMjgxIDE1IDEzLjg4MjgxMiAyMi42MDU0NjktMy4yMTA5MzggMS40MzM1OTQtNi4zMDA3ODEgMy4xMzI4MTMtOS41MzEyNSA0LjUxMTcxOS0zLjY0ODQzOCAxLjQ1NzAzMS03LjAxOTUzMSAzLjQ4ODI4MS0xMC42MDE1NjIgNS4xMDkzNzUtNi45MjE4NzYgMy4yMzQzNzUtMTMuNjM2NzE5IDYuOTcyNjU2LTIwLjY2MDE1NyA5Ljk2MDkzNy04LjY2Nzk2OSA0LjIxODc1LTE3LjI5Mjk2OSA4LjU1MDc4Mi0yNS45NjQ4NDMgMTIuNzUtNC43NSAxLjk5MjE4OC05LjI0MjE4OCA0LjQ5MjE4OC0xMy45MjE4NzYgNi42NDg0MzgtLjAwNzgxMi0zNC4xMjg5MDYtLjA3MDMxMi02OC4yODEyNS4wMzEyNS0xMDIuNDEwMTU2IDIuNTExNzE5IDQuMzc4OTA2IDQuODk4NDM4IDguODMyMDMxIDcuNSAxMy4xNjc5NjggMS45NDE0MDcgMy44NTU0NjkgMy45NTMxMjYgNy42NjQwNjMgNi4xNDg0MzggMTEuMzg2NzE5IDIuOTg4MjgxIDQuOTgwNDY5IDUuNjMyODEyIDEwLjE1NjI1IDguNjAxNTYyIDE1LjE1NjI1IDEuNDUzMTI2IDIuNzc3MzQ0IDIuODQzNzUgNS41ODk4NDQgNC40NDE0MDcgOC4yODkwNjMtMy43MzgyODEgMS44NzUtNy4yMTA5MzggNC4wMjM0MzctMTEuMDU0Njg4IDUuNzEwOTM3LTIuMDc0MjE5LjkwMjM0NC00LjA3NDIxOSAxLjk1NzAzMS02LjA2MjUgMy4wNDI5NjktLjAyNzM0MyAzLjk4ODI4MS0uMDM5MDYyIDcuOTg0Mzc1LjAxMTcxOSAxMS45NzY1NjIgNy40OTIxODgtMi44MTI1IDE0LjY0NDUzMS02LjU0Mjk2OCAyMi4wMDc4MTItOS42ODc1IDQuMjUzOTA3LTEuNzkyOTY4IDguMzA0Njg4LTMuOTY4NzUgMTIuNjI1LTUuNjAxNTYyLTIuNTkzNzUtNC4xMzY3MTktNS4yMjY1NjItOC4yMzQzNzUtNy41NzAzMTItMTIuNTE1NjI1LTMuNTQyOTY5LTUuNDU3MDMxLTYuNzczNDM4LTExLjEwOTM3NS0xMC4zNTU0NjktMTYuNTQ2ODc1LTIuMzQzNzUtMy41NTQ2ODgtNC4yMTQ4NDMtNy4zNzg5MDYtNi41MzEyNS0xMC45NjA5MzgtMy42OTkyMTktNS43MDcwMzEtNy4yMzA0NjktMTEuNTE5NTMxLTEwLjc3NzM0My0xNy4zMjQyMTgtNC42NjAxNTctOC4wODk4NDQtOS44NjcxODgtMTUuNzg5MDYzLTE0LjY0ODQzOC0yMy43OTI5NjktMi4yMzgyODEgMy40Njg3NS00LjI2MTcxOSA3LjA2NjQwNi02LjU0Mjk2OSAxMC41MTE3MTktNC41NTg1OTMgNy4xNjc5NjgtOC43NjE3MTkgMTQuNTMxMjUtMTMuMjYxNzE5IDIxLjczMDQ2OC0yLjkzMzU5MyA1LjAxMTcxOS02LjI4MTI1IDkuNjQ4NDM4LTkuMDE1NjI0IDE0Ljc2OTUzMi0xLjQ0MTQwNyAyLjY3NTc4MS0zLjEzNjcxOSA1LjE1NjI1LTQuNzUzOTA3IDcuNzE4NzUtMi44OTQ1MzEgNC42MTcxODctNS42NTYyNSA5LjMxNjQwNi04LjYwNTQ2OSAxMy44OTg0MzctMi4yNzczNDMgNC4xMzI4MTMtNC43ODkwNjIgOC4xMTMyODEtNy4yNjk1MzEgMTIuMTIxMDk0IDIuMzQzNzUuNzgxMjUgNC41MzUxNTcgMS43NSA2LjcxODc1IDIuODk4NDM3IDUuNDY4NzUgMi42Nzk2ODggMTEuMDUwNzgxIDUuMTA1NDY5IDE2LjQ4MDQ2OSA3Ljg1NTQ2OSAzLjY0NDUzMSAxLjYzNjcxOSA3LjE1NjI1IDMuNTc0MjE5IDEwLjkxNzk2OSA0LjgzOTg0NC4zMTI1LTMuOTQ1MzEzLjQ4ODI4MS03Ljg5MDYyNS42MDU0NjktMTEuODQzNzUtMS44OTA2MjYtMS4wODk4NDQtMy44MjQyMTktMi4xMDkzNzUtNS44MjQyMTktMi45ODgyODEtMy45MjU3ODEtMS43NS03LjQ4ODI4MS0zLjg1MTU2My0xMS4yODUxNTctNS44MzIwMzIgNS4xOTE0MDctOS43MzgyODEgMTAuNjM2NzE5LTE5LjI0MjE4NyAxNi4wOTM3NS0yOC44MzU5MzcgMy4yMTA5MzgtNi40ODQzNzUgNi45OTIxODgtMTIuNjcxODc1IDEwLjUzMTI1LTE4Ljk3NjU2My0uMDYyNSA1LjM3NS4wNzgxMjYgMTAuNzQyMTg4LjAxMTcxOSAxNi4xMTcxODgtLjE4MzU5MyAyOC43MTQ4NDQtLjIyNjU2MiA1Ny40MjE4NzUtLjUwNzgxMiA4Ni4xMzI4MTItMy4xNjc5NjktMS41MzEyNS02LjMzMjAzMS0zLjA3MDMxMi05LjQ2ODc1LTQuNjU2MjUtNS4zMTI1LTIuMjU3ODEyLTEwLjUwMzkwNy00Ljg1MTU2Mi0xNS42NDg0MzgtNy40Njg3NS00LjYyMTA5My0yLjI1NzgxMi05LjMwMDc4MS00LjM2NzE4Ny0xMy44NTU0NjktNi43NTc4MTItOC4zNTkzNzQtMy41MTU2MjUtMTYuMjgxMjUtNy45MDYyNS0yNC41MjczNDMtMTEuNzEwOTM4LTUuNDE3OTY5LTIuOTE0MDYyLTExLjE2Nzk2OS01LjA0Mjk2OC0xNi42MTMyODEtNy45MTQwNjIgMy43NTc4MTItNi4xNDA2MjUgNy42NzU3ODEtMTIuMTcxODc1IDExLjQxNDA2Mi0xOC4zMjgxMjUgNC42MDE1NjItNy44Mzk4NDQgOS4zOTQ1MzEtMTUuNTgyMDMxIDE0LjI4MTI1LTIzLjI0NjA5NCAyLjA1NDY4OC0zLjE5OTIxOSAzLjY5NTMxMi02LjYyNSA1Ljc5Mjk2OS05LjgwMDc4MSAzLjU3NDIxOS01LjQ0MTQwNiA2LjgxMjUtMTEuMDg1OTM4IDEwLjMzMjAzMS0xNi41NjY0MDYgNC40NjA5MzgtNy45NDUzMTMgOS41MzkwNjItMTUuNDQ1MzEzIDE0LjIxODc1LTIzLjI0NjA5NCAyLjY2Nzk2OS00Ljk1MzEyNSA1LjkyOTY4OC05LjU0Mjk2OSA4Ljc0MjE4OC0xNC40MjE4NzUgMS44OTA2MjQtMy4yNzczNDQgNC4xNTYyNS02LjMxMjUgNi05LjYxMzI4MSAyLjM1MTU2Mi00LjQwNjI1IDUuMTEzMjgxLTguNjA1NDY5IDcuODA4NTkzLTEyLjgwODU5NCAyLjU1MDc4MS00LjE5MTQwNiA1LjA4NTkzOC04LjM5ODQzOCA3LjcxMDkzOC0xMi41NDY4NzV6bTAgMCIvPjwvc3ZnPg==;" parent="1" vertex="1">
                    <mxGeometry x="1351" y="-4" width="104" height="104" as="geometry"/>
                </mxCell>
                <mxCell id="npFnTr0Nz-ztX7RqOmGq-24" style="edgeStyle=orthogonalEdgeStyle;shape=connector;rounded=1;orthogonalLoop=1;jettySize=auto;html=1;dashed=1;dashPattern=8 8;strokeColor=default;align=center;verticalAlign=middle;fontFamily=Helvetica;fontSize=12;fontColor=default;labelBackgroundColor=default;startSize=8;endArrow=open;endFill=0;endSize=8;" parent="1" source="PG-S5D8SCmHSsYNVxMVk-172" target="PG-S5D8SCmHSsYNVxMVk-161" edge="1">
                    <mxGeometry relative="1" as="geometry">
                        <Array as="points">
                            <mxPoint x="1340" y="-290"/>
                            <mxPoint x="1340" y="-290"/>
                        </Array>
                    </mxGeometry>
                </mxCell>
                <mxCell id="PG-S5D8SCmHSsYNVxMVk-172" value="" style="shape=image;imageAspect=0;aspect=fixed;verticalLabelPosition=bottom;verticalAlign=top;fontFamily=Helvetica;fontSize=12;fontColor=default;labelBackgroundColor=default;image=data:image/svg+xml,PHN2ZyB4bWxucz0iaHR0cDovL3d3dy53My5vcmcvMjAwMC9zdmciIHByZXNlcnZlQXNwZWN0UmF0aW89InhNaW5ZTWluIG1lZXQiIHZpZXdCb3g9IjAgMCAyNTYgMjU2IiBoZWlnaHQ9IjgwMHB4IiB3aWR0aD0iODAwcHgiPjxwYXRoIGZpbGw9IiNGRkYiIGQ9Ik0yNTUuOTYgMTM0LjM5M2MwLTIxLjUyMS0xMy4zNzMtNDAuMTE3LTMzLjIyMy00Ny40M2E3NS4yMzkgNzUuMjM5IDAgMCAwIDEuMjUzLTEzLjc5MWMwLTM5LjkwOS0zMi4zODYtNzIuMjk1LTcyLjI5NS03Mi4yOTUtMjMuMTkzIDAtNDQuOTIzIDExLjA3NC01OC41MDUgMzAuMDg4LTYuNjg2LTUuMjI0LTE0LjgzNS03Ljk0LTIzLjQwMi03Ljk0LTIxLjEwNCAwLTM4LjQ0NiAxNy4xMzMtMzguNDQ2IDM4LjQ0NiAwIDQuNTk3LjgzNiA5LjE5NCAyLjI5OCAxMy4zNzNDMTMuNTgyIDgxLjczOSAwIDEwMC45NjIgMCAxMjIuMjc0YzAgMjEuNTIyIDEzLjM3MyA0MC4zMjcgMzMuNDMxIDQ3LjY0LS44MzUgNC4zODgtMS4yNTMgOC45ODUtMS4yNTMgMTMuNzkgMCAzOS43IDMyLjM4NiA3Mi4wODcgNzIuMDg2IDcyLjA4NyAyMy40MDIgMCA0NC45MjQtMTEuMjgzIDU4LjUwNS0zMC4wODggNi42ODYgNS4yMjMgMTUuMDQ0IDguMTQ5IDIzLjYxMSA4LjE0OSAyMS4xMDQgMCAzOC40NDYtMTcuMTM0IDM4LjQ0Ni0zOC40NDYgMC00LjU5Ny0uODM2LTkuMTk0LTIuMjk4LTEzLjM3MyAxOS42NC03LjEwNCAzMy40MzEtMjYuMzI3IDMzLjQzMS00Ny42NHoiLz48cGF0aCBmaWxsPSIjRjRCRDE5IiBkPSJNMTAwLjA4NSAxMTAuMzY0bDU3LjA0MyAyNi4xMTkgNTcuNjY5LTUwLjU2NWE2NC4zMTIgNjQuMzEyIDAgMCAwIDEuMjUzLTEyLjc0NmMwLTM1LjUyLTI4LjgzNC02NC4zNTUtNjQuMzU1LTY0LjM1NS0yMS4zMTMgMC00MS4xNjIgMTAuNDQ3LTUzLjA3MiAyNy45OThsLTkuNjEyIDQ5LjczIDExLjA3NCAyMy44MnoiLz48cGF0aCBmaWxsPSIjM0NCRUIxIiBkPSJNNDAuOTUzIDE3MC43NWMtLjgzNSA0LjE3OS0xLjI1MyA4LjU2Ny0xLjI1MyAxMi45NTUgMCAzNS41MiAyOS4wNDMgNjQuNTY0IDY0LjU2NCA2NC41NjQgMjEuNTIyIDAgNDEuMzcyLTEwLjY1NiA1My40OS0yOC4yMDhsOS40MDMtNDkuNzI5LTEyLjc0Ni0yNC4yMzgtNTcuMjUxLTI2LjExOC01Ni4yMDcgNTAuNzc0eiIvPjxwYXRoIGZpbGw9IiNFOTQ3OEMiIGQ9Ik00MC41MzYgNzEuOTE4bDM5LjA3MyA5LjE5NCA4Ljc3NS00NC41MDZjLTUuNDMyLTQuMTc5LTExLjkxLTYuMjY4LTE4LjgwNS02LjI2OC0xNi45MjUgMC0zMC45MjQgMTMuNzktMzAuOTI0IDMwLjkyNCAwIDMuNTUyLjYyNyA3LjMxMyAxLjg4IDEwLjY1NnoiLz48cGF0aCBmaWxsPSIjMkM0NThGIiBkPSJNMzcuMTkyIDgxLjMyYy0xNy41NTEgNS42NDItMjkuNjcgMjIuNTY3LTI5LjY3IDQwLjk1NCAwIDE3Ljk3IDExLjA3NCAzNC4wNTkgMjcuNzkgNDAuMzI3bDU0Ljk1My00OS43My0xMC4wMy0yMS41Mi00My4wNDMtMTAuMDN6Ii8+PHBhdGggZmlsbD0iIzk1QzYzRCIgZD0iTTE2Ny43ODQgMjE5Ljg1MmM1LjQzMiA0LjE4IDExLjkxIDYuNDc4IDE4LjU5NiA2LjQ3OCAxNi45MjUgMCAzMC45MjQtMTMuNzkgMzAuOTI0LTMwLjkyNCAwLTMuNzYxLS42MjctNy4zMTQtMS44OC0xMC42NTdsLTM5LjA3My05LjE5My04LjU2NyA0NC4yOTZ6Ii8+PHBhdGggZmlsbD0iIzE3NjY1NSIgZD0iTTE3NS43MjQgMTY1LjMxN2w0My4wNDMgMTAuMDNjMTcuNTUxLTUuODUgMjkuNjctMjIuNTY2IDI5LjY3LTQwLjk1NCAwLTE3Ljk3LTExLjA3NC0zMy44NDktMjcuNzktNDAuMzI2bC01Ni40MTUgNDkuMzExIDExLjQ5MiAyMS45NHoiLz48L3N2Zz4=;" parent="1" vertex="1">
                    <mxGeometry x="1174" y="-329" width="79" height="79" as="geometry"/>
                </mxCell>
                <mxCell id="PG-S5D8SCmHSsYNVxMVk-183" value="&lt;b&gt;OBSERVABILITY&lt;/b&gt;" style="text;strokeColor=none;fillColor=none;html=1;align=left;verticalAlign=middle;whiteSpace=wrap;rounded=0;fontSize=15;fontFamily=Comic Sans MS;" parent="1" vertex="1">
                    <mxGeometry x="1210" y="-370" width="188" height="20" as="geometry"/>
                </mxCell>
                <mxCell id="PG-S5D8SCmHSsYNVxMVk-184" value="" style="image;aspect=fixed;html=1;points=[];align=center;fontSize=12;image=img/lib/azure2/monitor/SAP_Azure_Monitor.svg;fontFamily=Helvetica;fontColor=default;labelBackgroundColor=default;" parent="1" vertex="1">
                    <mxGeometry x="1169" y="-374" width="37.5" height="30" as="geometry"/>
                </mxCell>
                <mxCell id="npFnTr0Nz-ztX7RqOmGq-14" value="&lt;b&gt;&lt;font&gt;Kibana&lt;/font&gt;&lt;/b&gt;" style="text;strokeColor=none;fillColor=none;html=1;align=center;verticalAlign=middle;whiteSpace=wrap;rounded=0;fontSize=18;fontFamily=Comic Sans MS;" parent="1" vertex="1">
                    <mxGeometry x="1360" y="-250" width="70" height="30" as="geometry"/>
                </mxCell>
                <mxCell id="npFnTr0Nz-ztX7RqOmGq-15" value="&lt;b&gt;&lt;font&gt;Loki&lt;/font&gt;&lt;/b&gt;" style="text;strokeColor=none;fillColor=none;html=1;align=center;verticalAlign=middle;whiteSpace=wrap;rounded=0;fontSize=18;fontFamily=Comic Sans MS;" parent="1" vertex="1">
                    <mxGeometry x="1529" y="-250" width="70" height="30" as="geometry"/>
                </mxCell>
                <mxCell id="npFnTr0Nz-ztX7RqOmGq-16" value="&lt;b&gt;Prometheus&lt;/b&gt;" style="text;strokeColor=none;fillColor=none;html=1;align=center;verticalAlign=middle;whiteSpace=wrap;rounded=0;fontSize=18;fontFamily=Comic Sans MS;" parent="1" vertex="1">
                    <mxGeometry x="1180" y="-60" width="85" height="30" as="geometry"/>
                </mxCell>
                <mxCell id="npFnTr0Nz-ztX7RqOmGq-17" value="&lt;b&gt;Grafana&lt;/b&gt;" style="text;strokeColor=none;fillColor=none;html=1;align=center;verticalAlign=middle;whiteSpace=wrap;rounded=0;fontSize=18;fontFamily=Comic Sans MS;" parent="1" vertex="1">
                    <mxGeometry x="1613" y="-70" width="85" height="30" as="geometry"/>
                </mxCell>
                <mxCell id="npFnTr0Nz-ztX7RqOmGq-18" value="&lt;b&gt;Tempo&lt;/b&gt;" style="text;strokeColor=none;fillColor=none;html=1;align=center;verticalAlign=middle;whiteSpace=wrap;rounded=0;fontSize=18;fontFamily=Comic Sans MS;" parent="1" vertex="1">
                    <mxGeometry x="1550" y="105" width="85" height="30" as="geometry"/>
                </mxCell>
                <mxCell id="npFnTr0Nz-ztX7RqOmGq-21" value="&lt;b&gt;Zipkin&lt;/b&gt;" style="text;strokeColor=none;fillColor=none;html=1;align=center;verticalAlign=middle;whiteSpace=wrap;rounded=0;fontSize=18;fontFamily=Comic Sans MS;" parent="1" vertex="1">
                    <mxGeometry x="1366.25" y="105" width="85" height="30" as="geometry"/>
                </mxCell>
                <mxCell id="npFnTr0Nz-ztX7RqOmGq-22" value="&lt;b&gt;Jaeger&lt;/b&gt;" style="text;strokeColor=none;fillColor=none;html=1;align=center;verticalAlign=middle;whiteSpace=wrap;rounded=0;fontSize=18;fontFamily=Comic Sans MS;" parent="1" vertex="1">
                    <mxGeometry x="1180" y="105" width="85" height="30" as="geometry"/>
                </mxCell>
                <mxCell id="npFnTr0Nz-ztX7RqOmGq-13" value="&lt;b&gt;&lt;font&gt;Elastic&lt;/font&gt;&lt;/b&gt;" style="text;strokeColor=none;fillColor=none;html=1;align=center;verticalAlign=middle;whiteSpace=wrap;rounded=0;fontSize=18;fontFamily=Comic Sans MS;" parent="1" vertex="1">
                    <mxGeometry x="1178.5" y="-250" width="70" height="30" as="geometry"/>
                </mxCell>
                <mxCell id="npFnTr0Nz-ztX7RqOmGq-26" style="edgeStyle=orthogonalEdgeStyle;shape=connector;rounded=1;orthogonalLoop=1;jettySize=auto;html=1;entryX=0.008;entryY=0.333;entryDx=0;entryDy=0;entryPerimeter=0;dashed=1;dashPattern=8 8;strokeColor=default;align=center;verticalAlign=middle;fontFamily=Helvetica;fontSize=12;fontColor=default;labelBackgroundColor=default;startSize=8;endArrow=open;endFill=0;endSize=8;" parent="1" source="PG-S5D8SCmHSsYNVxMVk-172" target="PG-S5D8SCmHSsYNVxMVk-163" edge="1">
                    <mxGeometry relative="1" as="geometry">
                        <Array as="points">
                            <mxPoint x="1214" y="-210"/>
                            <mxPoint x="1340" y="-210"/>
                            <mxPoint x="1340" y="-129"/>
                        </Array>
                    </mxGeometry>
                </mxCell>
                <mxCell id="5" value="" style="shape=cylinder3;whiteSpace=wrap;html=1;boundedLbl=1;backgroundOutline=1;size=15;" vertex="1" parent="1">
                    <mxGeometry x="1553" y="-693" width="60" height="80" as="geometry"/>
                </mxCell>
                <mxCell id="6" style="edgeStyle=none;html=1;entryX=0.222;entryY=0.417;entryDx=0;entryDy=0;entryPerimeter=0;" edge="1" parent="1" source="PG-S5D8SCmHSsYNVxMVk-36" target="5">
                    <mxGeometry relative="1" as="geometry"/>
                </mxCell>
            </root>
        </mxGraphModel>
    </diagram>
</mxfile>